<svg width="60" height="60" viewBox="0 0 60 60" fill="none" xmlns="http://www.w3.org/2000/svg">
<g clip-path="url(#clip0_30_18659)">
<g filter="url(#filter0_d_30_18659)">
<path d="M60 0H0V60H60V0Z" fill="url(#paint0_linear_30_18659)"/>
</g>
<path d="M45 23.8235L41.6912 19.4118L45 15H33.5294V30.8824H30.8824V32.6471H25.5882V34.4118H20.2941V36.1765H15V45H37.9412V30.8824H35.2941V23.8235H45ZM27.3529 34.4118H30.8824V43.2353H27.3529C27.3529 42.1289 27.3529 35.5046 27.3529 34.4118ZM22.0588 36.1765H25.5882V43.2353H22.0588C22.0588 42.6026 22.0588 37.1659 22.0588 36.1765ZM16.7647 37.9412H20.2941V43.2353H16.7647V37.9412ZM36.1765 43.2353H32.6471C32.6471 42.7645 32.6471 33.1086 32.6471 32.6471H36.1765V43.2353ZM35.2941 16.7647H41.4706L39.4853 19.4118L41.4706 22.0588H35.2941V16.7647Z" fill="white"/>
<path d="M23.9435 25.5443L25.8106 27.4113L30 23.2845V24.996H31.7647V20.2944H27.0631V22.0591H28.7292L25.82 24.925L23.9435 23.0486L16.437 30.555L17.6848 31.8028L23.9435 25.5443Z" fill="white"/>
</g>
<defs>
<filter id="filter0_d_30_18659" x="-16" y="-16" width="100" height="100" filterUnits="userSpaceOnUse" color-interpolation-filters="sRGB">
<feFlood flood-opacity="0" result="BackgroundImageFix"/>
<feColorMatrix in="SourceAlpha" type="matrix" values="0 0 0 0 0 0 0 0 0 0 0 0 0 0 0 0 0 0 127 0" result="hardAlpha"/>
<feOffset dx="4" dy="4"/>
<feGaussianBlur stdDeviation="10"/>
<feColorMatrix type="matrix" values="0 0 0 0 0 0 0 0 0 0 0 0 0 0 0 0 0 0 0.08 0"/>
<feBlend mode="normal" in2="BackgroundImageFix" result="effect1_dropShadow_30_18659"/>
<feBlend mode="normal" in="SourceGraphic" in2="effect1_dropShadow_30_18659" result="shape"/>
</filter>
<linearGradient id="paint0_linear_30_18659" x1="0" y1="30" x2="60" y2="30" gradientUnits="userSpaceOnUse">
<stop stop-color="#6A11CB"/>
<stop offset="1" stop-color="#2575FC"/>
</linearGradient>
<clipPath id="clip0_30_18659">
<rect width="60" height="60" rx="10" fill="white"/>
</clipPath>
</defs>
</svg>
