<svg width="60" height="60" viewBox="0 0 60 60" fill="none" xmlns="http://www.w3.org/2000/svg">
<g clip-path="url(#clip0_30_18731)">
<g filter="url(#filter0_d_30_18731)">
<path d="M60 0H0V60H60V0Z" fill="url(#paint0_linear_30_18731)"/>
</g>
<g clip-path="url(#clip1_30_18731)">
<mask id="path-3-outside-1_30_18731" maskUnits="userSpaceOnUse" x="14.1169" y="14.5859" width="32" height="31" fill="black">
<rect fill="white" x="14.1169" y="14.5859" width="32" height="31"/>
<path d="M44.9999 28.2853C44.9999 25.775 43.3699 23.6396 41.1134 22.878C40.6588 21.0358 39.125 19.6403 37.2406 19.3121C37.1575 18.4432 36.7947 17.6277 36.1848 16.9611C35.3853 16.0872 34.2376 15.5859 33.0362 15.5859C31.6049 15.5859 30.3385 16.2851 29.5744 17.3513C28.8104 16.2851 27.544 15.5859 26.1126 15.5859C24.9112 15.5859 23.7636 16.0872 22.964 16.9611C22.3546 17.6272 21.9919 18.4422 21.9084 19.3103C20.6319 19.5276 19.5097 20.2282 18.758 21.2975C18.0302 22.3329 17.7557 23.5706 17.9691 24.7782C16.2167 25.7022 15.1169 27.4751 15.1169 29.459C15.1169 31.2003 15.9644 32.786 17.3781 33.7767C16.5647 35.0594 16.4423 36.6034 17.0726 38.0566C17.8452 39.8377 19.5779 40.9887 21.4867 40.9887C21.6353 40.9887 21.7848 40.9818 21.9347 40.9682C22.0528 41.7591 22.4044 42.5095 22.9543 43.1148C23.7546 43.9956 24.9058 44.5008 26.1126 44.5008C27.544 44.5008 28.8104 43.8016 29.5744 42.7354C30.3385 43.8016 31.6049 44.5008 33.0362 44.5008C34.2432 44.5008 35.3943 43.9956 36.1945 43.1149C36.7445 42.5095 37.0961 41.759 37.2141 40.9681C39.0605 41.1339 40.7843 40.28 41.7728 38.6446C42.7785 36.9808 42.6912 35.0246 41.5869 33.5093C43.5943 32.6243 44.9999 30.6164 44.9999 28.2853ZM28.8135 40.3796C28.8135 41.8129 27.6019 42.9789 26.1126 42.9789C25.3337 42.9789 24.5931 42.6555 24.0807 42.0916C23.6984 41.6709 23.473 41.1584 23.4231 40.6145C24.7951 40.0697 25.1496 39.1397 25.4156 38.4395C25.6391 37.8514 25.7512 37.5563 26.3879 37.3855C26.7939 37.2767 27.0348 36.8595 26.926 36.4535C26.8172 36.0477 26.4 35.8066 25.9941 35.9156C24.6051 36.2878 24.2513 37.219 23.993 37.899C23.7327 38.584 23.5608 39.0365 22.4693 39.329C22.4682 39.3293 22.4673 39.3297 22.4663 39.33C22.4656 39.3302 22.4649 39.3302 22.4642 39.3304C22.1354 39.421 21.8065 39.4669 21.4869 39.4669C20.1847 39.4669 19.0001 38.6757 18.4689 37.451C17.9606 36.2794 18.1829 35.0183 19.0634 34.0775C19.2291 33.9004 19.3005 33.6548 19.2555 33.4166C19.2105 33.1782 19.0546 32.9755 18.8357 32.871C17.4807 32.2238 16.6389 30.9165 16.6389 29.459C16.6389 27.8868 17.6178 26.4974 19.1329 25.9193C19.5138 25.774 19.7125 25.3542 19.5834 24.9674C19.2672 24.0206 19.4202 23.0019 20.0032 22.1727C20.6147 21.3027 21.5882 20.7887 22.675 20.7615C23.9698 20.7643 24.2555 21.2809 24.6503 21.9954C25.0099 22.6463 25.5023 23.5375 26.8265 23.5375C27.2467 23.5375 27.5874 23.1968 27.5874 22.7766C27.5874 22.3564 27.2467 22.0157 26.8265 22.0157C26.4344 22.0157 26.3317 21.8917 25.9824 21.2595C25.5955 20.5593 25.036 19.548 23.4455 19.2976C23.5243 18.8157 23.7428 18.3648 24.0871 17.9884C24.5989 17.4287 25.3373 17.1078 26.1126 17.1078C27.6018 17.1078 28.8134 18.2738 28.8134 19.7071V29.999C27.0268 29.8253 26.5804 29.0085 26.0333 28.0043C25.4978 27.0215 24.8315 25.7984 22.8288 25.5866C22.4112 25.5412 22.0362 25.8452 21.992 26.2633C21.9478 26.6812 22.2508 27.0558 22.6687 27.1C23.8771 27.2278 24.2033 27.8263 24.6969 28.7324C24.8755 29.0603 25.0662 29.4091 25.3087 29.7457C24.9078 30.1531 24.303 30.5751 23.6168 30.9152C23.2403 31.1019 23.0863 31.5584 23.273 31.9349C23.4058 32.2029 23.6753 32.3581 23.9553 32.3581C24.0688 32.3581 24.184 32.3326 24.2927 32.2788C25.1454 31.8561 25.8782 31.339 26.4046 30.7999C26.9803 31.1673 27.7476 31.4378 28.8135 31.5247V40.3796V40.3796ZM40.4704 37.8574C39.869 38.8523 38.5165 39.8347 36.6847 39.3304C36.684 39.3302 36.6832 39.3301 36.6825 39.33C36.6815 39.3297 36.6806 39.3293 36.6796 39.329C35.5881 39.0365 35.4162 38.584 35.1559 37.899C34.8975 37.219 34.5438 36.2877 33.1548 35.9156C32.7488 35.8068 32.3316 36.0477 32.2229 36.4535C32.1141 36.8595 32.355 37.2767 32.7609 37.3855C33.3977 37.5562 33.5099 37.8514 33.7334 38.4395C33.9994 39.1397 34.3538 40.0697 35.7258 40.6144C35.6758 41.1584 35.4505 41.6709 35.0682 42.0916C34.5557 42.6555 33.8151 42.9789 33.0362 42.9789C31.547 42.9789 30.3354 41.8129 30.3354 40.3796V34.9357C30.3358 33.5653 31.0569 32.8837 31.7319 32.7028C32.5693 32.4787 33.4465 32.9147 33.9661 33.8145C34.1762 34.1783 34.6415 34.3031 35.0055 34.093C35.3694 33.8828 35.4941 33.4175 35.284 33.0535C34.4232 31.5628 32.8374 30.8311 31.338 31.2328C30.9704 31.3313 30.6345 31.4903 30.3355 31.6996V19.7071C30.3355 18.2738 31.5471 17.1078 33.0363 17.1078C33.8118 17.1078 34.5501 17.4287 35.0621 17.9883C35.4064 18.3647 35.6249 18.8156 35.7037 19.2975C34.1132 19.5479 33.5537 20.5592 33.1668 21.2594C32.8175 21.8917 32.7148 22.0156 32.3227 22.0156C31.9025 22.0156 31.5618 22.3563 31.5618 22.7765C31.5618 23.1967 31.9025 23.5374 32.3227 23.5374C33.6468 23.5374 34.1393 22.6462 34.4989 21.9954C34.8937 21.2807 35.1795 20.7641 36.475 20.7614C37.7455 20.7937 38.8568 21.5179 39.3912 22.5809C39.3585 22.5803 39.326 22.5784 39.2932 22.5784C36.1464 22.5784 33.5863 25.1385 33.5863 28.2853C33.5863 31.432 36.1464 33.9921 39.2932 33.9921C39.5288 33.9921 39.7605 33.9761 39.9886 33.9482C40.0157 33.9938 40.0479 34.0372 40.0856 34.0775C41.2814 35.3553 41.0685 36.8679 40.4704 37.8574ZM39.293 32.4704C36.9854 32.4704 35.108 30.593 35.108 28.2853C35.108 25.9777 36.9854 24.1003 39.293 24.1003C41.6007 24.1003 43.4781 25.9777 43.4781 28.2853C43.4781 30.593 41.6007 32.4704 39.293 32.4704Z"/>
</mask>
<path d="M44.9999 28.2853C44.9999 25.775 43.3699 23.6396 41.1134 22.878C40.6588 21.0358 39.125 19.6403 37.2406 19.3121C37.1575 18.4432 36.7947 17.6277 36.1848 16.9611C35.3853 16.0872 34.2376 15.5859 33.0362 15.5859C31.6049 15.5859 30.3385 16.2851 29.5744 17.3513C28.8104 16.2851 27.544 15.5859 26.1126 15.5859C24.9112 15.5859 23.7636 16.0872 22.964 16.9611C22.3546 17.6272 21.9919 18.4422 21.9084 19.3103C20.6319 19.5276 19.5097 20.2282 18.758 21.2975C18.0302 22.3329 17.7557 23.5706 17.9691 24.7782C16.2167 25.7022 15.1169 27.4751 15.1169 29.459C15.1169 31.2003 15.9644 32.786 17.3781 33.7767C16.5647 35.0594 16.4423 36.6034 17.0726 38.0566C17.8452 39.8377 19.5779 40.9887 21.4867 40.9887C21.6353 40.9887 21.7848 40.9818 21.9347 40.9682C22.0528 41.7591 22.4044 42.5095 22.9543 43.1148C23.7546 43.9956 24.9058 44.5008 26.1126 44.5008C27.544 44.5008 28.8104 43.8016 29.5744 42.7354C30.3385 43.8016 31.6049 44.5008 33.0362 44.5008C34.2432 44.5008 35.3943 43.9956 36.1945 43.1149C36.7445 42.5095 37.0961 41.759 37.2141 40.9681C39.0605 41.1339 40.7843 40.28 41.7728 38.6446C42.7785 36.9808 42.6912 35.0246 41.5869 33.5093C43.5943 32.6243 44.9999 30.6164 44.9999 28.2853ZM28.8135 40.3796C28.8135 41.8129 27.6019 42.9789 26.1126 42.9789C25.3337 42.9789 24.5931 42.6555 24.0807 42.0916C23.6984 41.6709 23.473 41.1584 23.4231 40.6145C24.7951 40.0697 25.1496 39.1397 25.4156 38.4395C25.6391 37.8514 25.7512 37.5563 26.3879 37.3855C26.7939 37.2767 27.0348 36.8595 26.926 36.4535C26.8172 36.0477 26.4 35.8066 25.9941 35.9156C24.6051 36.2878 24.2513 37.219 23.993 37.899C23.7327 38.584 23.5608 39.0365 22.4693 39.329C22.4682 39.3293 22.4673 39.3297 22.4663 39.33C22.4656 39.3302 22.4649 39.3302 22.4642 39.3304C22.1354 39.421 21.8065 39.4669 21.4869 39.4669C20.1847 39.4669 19.0001 38.6757 18.4689 37.451C17.9606 36.2794 18.1829 35.0183 19.0634 34.0775C19.2291 33.9004 19.3005 33.6548 19.2555 33.4166C19.2105 33.1782 19.0546 32.9755 18.8357 32.871C17.4807 32.2238 16.6389 30.9165 16.6389 29.459C16.6389 27.8868 17.6178 26.4974 19.1329 25.9193C19.5138 25.774 19.7125 25.3542 19.5834 24.9674C19.2672 24.0206 19.4202 23.0019 20.0032 22.1727C20.6147 21.3027 21.5882 20.7887 22.675 20.7615C23.9698 20.7643 24.2555 21.2809 24.6503 21.9954C25.0099 22.6463 25.5023 23.5375 26.8265 23.5375C27.2467 23.5375 27.5874 23.1968 27.5874 22.7766C27.5874 22.3564 27.2467 22.0157 26.8265 22.0157C26.4344 22.0157 26.3317 21.8917 25.9824 21.2595C25.5955 20.5593 25.036 19.548 23.4455 19.2976C23.5243 18.8157 23.7428 18.3648 24.0871 17.9884C24.5989 17.4287 25.3373 17.1078 26.1126 17.1078C27.6018 17.1078 28.8134 18.2738 28.8134 19.7071V29.999C27.0268 29.8253 26.5804 29.0085 26.0333 28.0043C25.4978 27.0215 24.8315 25.7984 22.8288 25.5866C22.4112 25.5412 22.0362 25.8452 21.992 26.2633C21.9478 26.6812 22.2508 27.0558 22.6687 27.1C23.8771 27.2278 24.2033 27.8263 24.6969 28.7324C24.8755 29.0603 25.0662 29.4091 25.3087 29.7457C24.9078 30.1531 24.303 30.5751 23.6168 30.9152C23.2403 31.1019 23.0863 31.5584 23.273 31.9349C23.4058 32.2029 23.6753 32.3581 23.9553 32.3581C24.0688 32.3581 24.184 32.3326 24.2927 32.2788C25.1454 31.8561 25.8782 31.339 26.4046 30.7999C26.9803 31.1673 27.7476 31.4378 28.8135 31.5247V40.3796V40.3796ZM40.4704 37.8574C39.869 38.8523 38.5165 39.8347 36.6847 39.3304C36.684 39.3302 36.6832 39.3301 36.6825 39.33C36.6815 39.3297 36.6806 39.3293 36.6796 39.329C35.5881 39.0365 35.4162 38.584 35.1559 37.899C34.8975 37.219 34.5438 36.2877 33.1548 35.9156C32.7488 35.8068 32.3316 36.0477 32.2229 36.4535C32.1141 36.8595 32.355 37.2767 32.7609 37.3855C33.3977 37.5562 33.5099 37.8514 33.7334 38.4395C33.9994 39.1397 34.3538 40.0697 35.7258 40.6144C35.6758 41.1584 35.4505 41.6709 35.0682 42.0916C34.5557 42.6555 33.8151 42.9789 33.0362 42.9789C31.547 42.9789 30.3354 41.8129 30.3354 40.3796V34.9357C30.3358 33.5653 31.0569 32.8837 31.7319 32.7028C32.5693 32.4787 33.4465 32.9147 33.9661 33.8145C34.1762 34.1783 34.6415 34.3031 35.0055 34.093C35.3694 33.8828 35.4941 33.4175 35.284 33.0535C34.4232 31.5628 32.8374 30.8311 31.338 31.2328C30.9704 31.3313 30.6345 31.4903 30.3355 31.6996V19.7071C30.3355 18.2738 31.5471 17.1078 33.0363 17.1078C33.8118 17.1078 34.5501 17.4287 35.0621 17.9883C35.4064 18.3647 35.6249 18.8156 35.7037 19.2975C34.1132 19.5479 33.5537 20.5592 33.1668 21.2594C32.8175 21.8917 32.7148 22.0156 32.3227 22.0156C31.9025 22.0156 31.5618 22.3563 31.5618 22.7765C31.5618 23.1967 31.9025 23.5374 32.3227 23.5374C33.6468 23.5374 34.1393 22.6462 34.4989 21.9954C34.8937 21.2807 35.1795 20.7641 36.475 20.7614C37.7455 20.7937 38.8568 21.5179 39.3912 22.5809C39.3585 22.5803 39.326 22.5784 39.2932 22.5784C36.1464 22.5784 33.5863 25.1385 33.5863 28.2853C33.5863 31.432 36.1464 33.9921 39.2932 33.9921C39.5288 33.9921 39.7605 33.9761 39.9886 33.9482C40.0157 33.9938 40.0479 34.0372 40.0856 34.0775C41.2814 35.3553 41.0685 36.8679 40.4704 37.8574ZM39.293 32.4704C36.9854 32.4704 35.108 30.593 35.108 28.2853C35.108 25.9777 36.9854 24.1003 39.293 24.1003C41.6007 24.1003 43.4781 25.9777 43.4781 28.2853C43.4781 30.593 41.6007 32.4704 39.293 32.4704Z" fill="white"/>
<path d="M44.9999 28.2853C44.9999 25.775 43.3699 23.6396 41.1134 22.878C40.6588 21.0358 39.125 19.6403 37.2406 19.3121C37.1575 18.4432 36.7947 17.6277 36.1848 16.9611C35.3853 16.0872 34.2376 15.5859 33.0362 15.5859C31.6049 15.5859 30.3385 16.2851 29.5744 17.3513C28.8104 16.2851 27.544 15.5859 26.1126 15.5859C24.9112 15.5859 23.7636 16.0872 22.964 16.9611C22.3546 17.6272 21.9919 18.4422 21.9084 19.3103C20.6319 19.5276 19.5097 20.2282 18.758 21.2975C18.0302 22.3329 17.7557 23.5706 17.9691 24.7782C16.2167 25.7022 15.1169 27.4751 15.1169 29.459C15.1169 31.2003 15.9644 32.786 17.3781 33.7767C16.5647 35.0594 16.4423 36.6034 17.0726 38.0566C17.8452 39.8377 19.5779 40.9887 21.4867 40.9887C21.6353 40.9887 21.7848 40.9818 21.9347 40.9682C22.0528 41.7591 22.4044 42.5095 22.9543 43.1148C23.7546 43.9956 24.9058 44.5008 26.1126 44.5008C27.544 44.5008 28.8104 43.8016 29.5744 42.7354C30.3385 43.8016 31.6049 44.5008 33.0362 44.5008C34.2432 44.5008 35.3943 43.9956 36.1945 43.1149C36.7445 42.5095 37.0961 41.759 37.2141 40.9681C39.0605 41.1339 40.7843 40.28 41.7728 38.6446C42.7785 36.9808 42.6912 35.0246 41.5869 33.5093C43.5943 32.6243 44.9999 30.6164 44.9999 28.2853ZM28.8135 40.3796C28.8135 41.8129 27.6019 42.9789 26.1126 42.9789C25.3337 42.9789 24.5931 42.6555 24.0807 42.0916C23.6984 41.6709 23.473 41.1584 23.4231 40.6145C24.7951 40.0697 25.1496 39.1397 25.4156 38.4395C25.6391 37.8514 25.7512 37.5563 26.3879 37.3855C26.7939 37.2767 27.0348 36.8595 26.926 36.4535C26.8172 36.0477 26.4 35.8066 25.9941 35.9156C24.6051 36.2878 24.2513 37.219 23.993 37.899C23.7327 38.584 23.5608 39.0365 22.4693 39.329C22.4682 39.3293 22.4673 39.3297 22.4663 39.33C22.4656 39.3302 22.4649 39.3302 22.4642 39.3304C22.1354 39.421 21.8065 39.4669 21.4869 39.4669C20.1847 39.4669 19.0001 38.6757 18.4689 37.451C17.9606 36.2794 18.1829 35.0183 19.0634 34.0775C19.2291 33.9004 19.3005 33.6548 19.2555 33.4166C19.2105 33.1782 19.0546 32.9755 18.8357 32.871C17.4807 32.2238 16.6389 30.9165 16.6389 29.459C16.6389 27.8868 17.6178 26.4974 19.1329 25.9193C19.5138 25.774 19.7125 25.3542 19.5834 24.9674C19.2672 24.0206 19.4202 23.0019 20.0032 22.1727C20.6147 21.3027 21.5882 20.7887 22.675 20.7615C23.9698 20.7643 24.2555 21.2809 24.6503 21.9954C25.0099 22.6463 25.5023 23.5375 26.8265 23.5375C27.2467 23.5375 27.5874 23.1968 27.5874 22.7766C27.5874 22.3564 27.2467 22.0157 26.8265 22.0157C26.4344 22.0157 26.3317 21.8917 25.9824 21.2595C25.5955 20.5593 25.036 19.548 23.4455 19.2976C23.5243 18.8157 23.7428 18.3648 24.0871 17.9884C24.5989 17.4287 25.3373 17.1078 26.1126 17.1078C27.6018 17.1078 28.8134 18.2738 28.8134 19.7071V29.999C27.0268 29.8253 26.5804 29.0085 26.0333 28.0043C25.4978 27.0215 24.8315 25.7984 22.8288 25.5866C22.4112 25.5412 22.0362 25.8452 21.992 26.2633C21.9478 26.6812 22.2508 27.0558 22.6687 27.1C23.8771 27.2278 24.2033 27.8263 24.6969 28.7324C24.8755 29.0603 25.0662 29.4091 25.3087 29.7457C24.9078 30.1531 24.303 30.5751 23.6168 30.9152C23.2403 31.1019 23.0863 31.5584 23.273 31.9349C23.4058 32.2029 23.6753 32.3581 23.9553 32.3581C24.0688 32.3581 24.184 32.3326 24.2927 32.2788C25.1454 31.8561 25.8782 31.339 26.4046 30.7999C26.9803 31.1673 27.7476 31.4378 28.8135 31.5247V40.3796V40.3796ZM40.4704 37.8574C39.869 38.8523 38.5165 39.8347 36.6847 39.3304C36.684 39.3302 36.6832 39.3301 36.6825 39.33C36.6815 39.3297 36.6806 39.3293 36.6796 39.329C35.5881 39.0365 35.4162 38.584 35.1559 37.899C34.8975 37.219 34.5438 36.2877 33.1548 35.9156C32.7488 35.8068 32.3316 36.0477 32.2229 36.4535C32.1141 36.8595 32.355 37.2767 32.7609 37.3855C33.3977 37.5562 33.5099 37.8514 33.7334 38.4395C33.9994 39.1397 34.3538 40.0697 35.7258 40.6144C35.6758 41.1584 35.4505 41.6709 35.0682 42.0916C34.5557 42.6555 33.8151 42.9789 33.0362 42.9789C31.547 42.9789 30.3354 41.8129 30.3354 40.3796V34.9357C30.3358 33.5653 31.0569 32.8837 31.7319 32.7028C32.5693 32.4787 33.4465 32.9147 33.9661 33.8145C34.1762 34.1783 34.6415 34.3031 35.0055 34.093C35.3694 33.8828 35.4941 33.4175 35.284 33.0535C34.4232 31.5628 32.8374 30.8311 31.338 31.2328C30.9704 31.3313 30.6345 31.4903 30.3355 31.6996V19.7071C30.3355 18.2738 31.5471 17.1078 33.0363 17.1078C33.8118 17.1078 34.5501 17.4287 35.0621 17.9883C35.4064 18.3647 35.6249 18.8156 35.7037 19.2975C34.1132 19.5479 33.5537 20.5592 33.1668 21.2594C32.8175 21.8917 32.7148 22.0156 32.3227 22.0156C31.9025 22.0156 31.5618 22.3563 31.5618 22.7765C31.5618 23.1967 31.9025 23.5374 32.3227 23.5374C33.6468 23.5374 34.1393 22.6462 34.4989 21.9954C34.8937 21.2807 35.1795 20.7641 36.475 20.7614C37.7455 20.7937 38.8568 21.5179 39.3912 22.5809C39.3585 22.5803 39.326 22.5784 39.2932 22.5784C36.1464 22.5784 33.5863 25.1385 33.5863 28.2853C33.5863 31.432 36.1464 33.9921 39.2932 33.9921C39.5288 33.9921 39.7605 33.9761 39.9886 33.9482C40.0157 33.9938 40.0479 34.0372 40.0856 34.0775C41.2814 35.3553 41.0685 36.8679 40.4704 37.8574ZM39.293 32.4704C36.9854 32.4704 35.108 30.593 35.108 28.2853C35.108 25.9777 36.9854 24.1003 39.293 24.1003C41.6007 24.1003 43.4781 25.9777 43.4781 28.2853C43.4781 30.593 41.6007 32.4704 39.293 32.4704Z" stroke="white" stroke-width="0.4" mask="url(#path-3-outside-1_30_18731)"/>
<path d="M41.0243 27.5247H40.0541V26.0201C40.0541 25.5999 39.7134 25.2592 39.2931 25.2592C38.8729 25.2592 38.5322 25.5999 38.5322 26.0201V28.2856C38.5322 28.7058 38.8729 29.0465 39.2931 29.0465H41.0243C41.4446 29.0465 41.7852 28.7058 41.7852 28.2856C41.7852 27.8654 41.4446 27.5247 41.0243 27.5247Z" fill="white"/>
<path d="M41.0243 27.5247H40.0541V26.0201C40.0541 25.5999 39.7134 25.2592 39.2931 25.2592C38.8729 25.2592 38.5322 25.5999 38.5322 26.0201V28.2856C38.5322 28.7058 38.8729 29.0465 39.2931 29.0465H41.0243C41.4446 29.0465 41.7852 28.7058 41.7852 28.2856C41.7852 27.8654 41.4446 27.5247 41.0243 27.5247Z" stroke="white"/>
</g>
</g>
<defs>
<filter id="filter0_d_30_18731" x="-16" y="-16" width="100" height="100" filterUnits="userSpaceOnUse" color-interpolation-filters="sRGB">
<feFlood flood-opacity="0" result="BackgroundImageFix"/>
<feColorMatrix in="SourceAlpha" type="matrix" values="0 0 0 0 0 0 0 0 0 0 0 0 0 0 0 0 0 0 127 0" result="hardAlpha"/>
<feOffset dx="4" dy="4"/>
<feGaussianBlur stdDeviation="10"/>
<feColorMatrix type="matrix" values="0 0 0 0 0 0 0 0 0 0 0 0 0 0 0 0 0 0 0.08 0"/>
<feBlend mode="normal" in2="BackgroundImageFix" result="effect1_dropShadow_30_18731"/>
<feBlend mode="normal" in="SourceGraphic" in2="effect1_dropShadow_30_18731" result="shape"/>
</filter>
<linearGradient id="paint0_linear_30_18731" x1="0" y1="30" x2="60" y2="30" gradientUnits="userSpaceOnUse">
<stop stop-color="#6A11CB"/>
<stop offset="1" stop-color="#2575FC"/>
</linearGradient>
<clipPath id="clip0_30_18731">
<rect width="60" height="60" rx="10" fill="white"/>
</clipPath>
<clipPath id="clip1_30_18731">
<rect width="30" height="30" fill="white" transform="translate(15 15)"/>
</clipPath>
</defs>
</svg>
