<svg width="60" height="60" viewBox="0 0 60 60" fill="none" xmlns="http://www.w3.org/2000/svg">
<path d="M60 0H0V60H60V0Z" fill="url(#paint0_linear_30_18790)"/>
<path d="M42.0625 38.9211C43.9694 36.3541 45 33.2563 45 30C45 25.9934 43.4398 22.2265 40.6066 19.3934C37.7735 16.5603 34.0066 15 30 15V16.7578C33.5371 16.7578 36.8626 18.1352 39.3636 20.6364C41.8648 23.1375 43.2422 26.4629 43.2422 30C43.2422 32.8572 42.3429 35.576 40.6792 37.834L40.4777 35.5307L38.7265 35.6839L39.1862 40.9372L44.4396 40.4776L44.2864 38.7265L42.0625 38.9211Z" fill="white"/>
<path d="M16.7578 30.0002C16.7578 27.143 17.6571 24.4243 19.3208 22.1662L19.5223 24.4695L21.2735 24.3163L20.8138 19.063L15.5604 19.5225L15.7136 21.2737L17.9374 21.0791C16.0306 23.6461 15 26.7439 15 30.0002C15 34.0069 16.5602 37.7737 19.3934 40.6069C22.2265 43.4399 25.9934 45.0002 30 45.0002V43.2424C26.4629 43.2424 23.1374 41.865 20.6364 39.3638C18.1352 36.8627 16.7578 33.5373 16.7578 30.0002V30.0002Z" fill="white"/>
<path d="M30 32.6953C31.4886 32.6953 32.6953 31.4886 32.6953 30C32.6953 28.5114 31.4886 27.3047 30 27.3047C28.5114 27.3047 27.3047 28.5114 27.3047 30C27.3047 31.4886 28.5114 32.6953 30 32.6953Z" fill="white"/>
<path d="M38.1432 26.4301L36.4186 26.9904C36.0334 26.1724 35.4965 25.4395 34.8442 24.8281L35.9118 23.3587L34.4896 22.3254L33.4234 23.7931C32.6514 23.3657 31.792 23.078 30.8791 22.9646V21.1523H29.1213V22.9646C28.2084 23.078 27.3489 23.3657 26.577 23.7931L25.5107 22.3254L24.0886 23.3587L25.1562 24.8281C24.5039 25.4395 23.9669 26.1724 23.5818 26.9904L21.8572 26.4301L21.314 28.1018L23.0376 28.6618C22.9544 29.0954 22.9104 29.5426 22.9104 30C22.9104 30.4574 22.9544 30.9046 23.0376 31.3382L21.314 31.8982L21.8572 33.5699L23.5818 33.0096C23.967 33.8276 24.5039 34.5605 25.1562 35.1719L24.0886 36.6413L25.5107 37.6746L26.577 36.2069C27.3489 36.6343 28.2084 36.922 29.1213 37.0354V38.8477H30.8791V37.0354C31.792 36.922 32.6514 36.6343 33.4234 36.2069L34.4896 37.6746L35.9118 36.6413L34.8442 35.1719C35.4965 34.5605 36.0335 33.8276 36.4186 33.0096L38.1432 33.5699L38.6864 31.8982L36.9628 31.3382C37.046 30.9046 37.09 30.4574 37.09 30C37.09 29.5426 37.046 29.0954 36.9628 28.6618L38.6864 28.1018L38.1432 26.4301ZM34.4533 30C34.4533 32.4554 32.4557 34.4531 30.0002 34.4531C27.5447 34.4531 25.5471 32.4554 25.5471 30C25.5471 27.5446 27.5447 25.5469 30.0002 25.5469C32.4557 25.5469 34.4533 27.5446 34.4533 30Z" fill="white"/>
<defs>
<linearGradient id="paint0_linear_30_18790" x1="0" y1="30" x2="60" y2="30" gradientUnits="userSpaceOnUse">
<stop stop-color="#6A11CB"/>
<stop offset="1" stop-color="#2575FC"/>
</linearGradient>
</defs>
</svg>
