<svg width="60" height="60" viewBox="0 0 60 60" fill="none" xmlns="http://www.w3.org/2000/svg">
<g clip-path="url(#clip0_30_18774)">
<g filter="url(#filter0_d_30_18774)">
<path d="M60 0H0V60H60V0Z" fill="url(#paint0_linear_30_18774)"/>
</g>
<path d="M41.4844 22.0898V18.5156H37.9102C37.9102 16.5771 36.333 15 34.3945 15C32.456 15 30.8789 16.5771 30.8789 18.5156H28.2422C20.9543 18.5156 15 24.4706 15 31.7578C15 39.0457 20.955 45 28.2422 45C35.5301 45 41.4844 39.045 41.4844 31.7578V29.1211C43.4229 29.1211 45 27.544 45 25.6055C45 23.667 43.4229 22.0898 41.4844 22.0898ZM27.3633 20.3068V24.3676C28.423 24.0137 28.6362 23.8477 29.1211 23.8477C30.0904 23.8477 30.8789 24.6362 30.8789 25.6055C30.8789 26.5747 30.0904 27.3633 29.1211 27.3633C28.6355 27.3633 28.4199 27.1962 27.3633 26.8434V30.8789H25.6055C25.6055 28.9404 24.0284 27.3633 22.0898 27.3633C20.1513 27.3633 18.5742 28.9404 18.5742 30.8789H16.7912C17.2195 25.2456 21.73 20.7351 27.3633 20.3068V20.3068ZM16.7912 32.6367H20.8521C20.4977 31.576 20.332 31.3638 20.332 30.8789C20.332 29.9096 21.1206 29.1211 22.0898 29.1211C23.0591 29.1211 23.8477 29.9096 23.8477 30.8789C23.8477 31.3638 23.6817 31.5766 23.3276 32.6367H27.3633V34.3945C25.4248 34.3945 23.8477 35.9716 23.8477 37.9102C23.8477 39.8487 25.4248 41.4258 27.3633 41.4258V43.2088C21.73 42.7805 17.2195 38.27 16.7912 32.6367ZM29.1211 43.2088V39.1481C28.0614 39.5019 27.8481 39.668 27.3633 39.668C26.394 39.668 25.6055 38.8794 25.6055 37.9102C25.6055 36.9409 26.394 36.1523 27.3633 36.1523C27.8488 36.1523 28.0645 36.3194 29.1211 36.6722V32.6367H30.8789C30.8789 34.5752 32.456 36.1523 34.3945 36.1523C36.333 36.1523 37.9102 34.5746 37.9102 32.6361L39.6932 32.6367C39.2649 38.27 34.7544 42.7805 29.1211 43.2088V43.2088ZM41.4844 27.3633C41.0858 27.3633 40.7838 27.182 39.7266 26.8192V30.8789H35.6323C35.9866 31.9396 36.1523 32.1519 36.1523 32.6367C36.1523 33.606 35.3638 34.3945 34.3945 34.3945C33.4253 34.3945 32.6367 33.606 32.6367 32.6367C32.6367 32.1519 32.8027 31.939 33.1567 30.8789H29.1211V29.1211C31.0596 29.1211 32.6367 27.544 32.6367 25.6055C32.6367 23.667 31.0596 22.0898 29.1211 22.0898V20.2734H33.1808C32.8221 19.228 32.6367 18.9139 32.6367 18.5156C32.6367 17.5464 33.4253 16.7578 34.3945 16.7578C35.3638 16.7578 36.1523 17.5464 36.1523 18.5156C36.1523 18.9143 35.9708 19.2168 35.6083 20.2734H39.7266V24.3917C40.772 24.033 41.0861 23.8477 41.4844 23.8477C42.4536 23.8477 43.2422 24.6362 43.2422 25.6055C43.2422 26.5747 42.4536 27.3633 41.4844 27.3633V27.3633Z" fill="white"/>
</g>
<defs>
<filter id="filter0_d_30_18774" x="-16" y="-16" width="100" height="100" filterUnits="userSpaceOnUse" color-interpolation-filters="sRGB">
<feFlood flood-opacity="0" result="BackgroundImageFix"/>
<feColorMatrix in="SourceAlpha" type="matrix" values="0 0 0 0 0 0 0 0 0 0 0 0 0 0 0 0 0 0 127 0" result="hardAlpha"/>
<feOffset dx="4" dy="4"/>
<feGaussianBlur stdDeviation="10"/>
<feColorMatrix type="matrix" values="0 0 0 0 0 0 0 0 0 0 0 0 0 0 0 0 0 0 0.08 0"/>
<feBlend mode="normal" in2="BackgroundImageFix" result="effect1_dropShadow_30_18774"/>
<feBlend mode="normal" in="SourceGraphic" in2="effect1_dropShadow_30_18774" result="shape"/>
</filter>
<linearGradient id="paint0_linear_30_18774" x1="0" y1="30" x2="60" y2="30" gradientUnits="userSpaceOnUse">
<stop stop-color="#6A11CB"/>
<stop offset="1" stop-color="#2575FC"/>
</linearGradient>
<clipPath id="clip0_30_18774">
<rect width="60" height="60" rx="10" fill="white"/>
</clipPath>
</defs>
</svg>
