<svg width="60" height="60" viewBox="0 0 60 60" fill="none" xmlns="http://www.w3.org/2000/svg">
<g clip-path="url(#clip0_30_18759)">
<g filter="url(#filter0_d_30_18759)">
<path d="M60 0H0V60H60V0Z" fill="url(#paint0_linear_30_18759)"/>
</g>
<path d="M35.636 15.5782C36.4285 16.4185 37.2308 17.2393 38.0331 18.0601C38.3658 18.4021 38.3658 18.578 38.0331 18.9102M35.636 15.5782L35.7114 15.5125C35.7109 15.512 35.7105 15.5115 35.71 15.511M35.636 15.5782C35.5658 15.4977 35.4783 15.4339 35.3801 15.3916C35.2819 15.3494 35.1754 15.3296 35.0685 15.334H29.1981C28.6697 15.334 28.5523 15.4414 28.5523 15.9691V23.3853M35.636 15.5782L35.7087 15.5096C35.7092 15.5101 35.7096 15.5105 35.71 15.511M35.71 15.511C36.5014 16.3501 37.3026 17.1698 38.1046 17.9902L38.1048 17.9904C38.2713 18.1615 38.3826 18.3168 38.3826 18.4888C38.3826 18.6612 38.2708 18.814 38.1044 18.9803M35.71 15.511C35.6302 15.4199 35.531 15.3477 35.4196 15.2998C35.3083 15.2519 35.1877 15.2294 35.0666 15.234M38.1044 18.9803C38.1046 18.9801 38.1048 18.9799 38.105 18.9796L38.0331 18.9102M38.1044 18.9803C38.1042 18.9805 38.104 18.9807 38.1038 18.9809L38.0331 18.9102M38.1044 18.9803C37.8366 19.2576 37.5679 19.5334 37.2995 19.8091C36.7629 20.3601 36.227 20.9105 35.6993 21.47M38.0331 18.9102C37.7657 19.187 37.4972 19.4627 37.2287 19.7385C36.6916 20.29 36.1546 20.8416 35.6262 21.4018M35.6262 21.4018L35.6997 21.4696C35.6996 21.4697 35.6994 21.4699 35.6993 21.47M35.6262 21.4018C35.547 21.4876 35.4499 21.5549 35.3416 21.5988C35.2333 21.6427 35.1167 21.6622 35 21.6558M35.6262 21.4018L35.699 21.4704C35.6991 21.4703 35.6992 21.4702 35.6993 21.47M35.6993 21.47C35.6102 21.5665 35.5009 21.6421 35.3792 21.6915C35.2582 21.7406 35.1278 21.7626 34.9974 21.7558M35 21.6558V21.7558H34.9974M35 21.6558H29.834H29.5524V21.7558M35 21.6558L34.9946 21.7557C34.9955 21.7557 34.9964 21.7558 34.9974 21.7558M34.9974 21.7558H34.9899H34.9798H34.9698H34.9597H34.9496H34.9395H34.9294H34.9193H34.9092H34.8991H34.889H34.879H34.8689H34.8588H34.8487H34.8386H34.8285H34.8184H34.8083H34.7982H34.7881H34.7781H34.768H34.7579H34.7478H34.7377H34.7276H34.7175H34.7074H34.6973H34.6872H34.6772H34.6671H34.657H34.6469H34.6368H34.6267H34.6166H34.6065H34.5964H34.5863H34.5763H34.5662H34.5561H34.546H34.5359H34.5258H34.5157H34.5056H34.4955H34.4854H34.4754H34.4653H34.4552H34.4451H34.435H34.4249H34.4148H34.4047H34.3946H34.3845H34.3745H34.3644H34.3543H34.3442H34.3341H34.324H34.3139H34.3038H34.2937H34.2836H34.2736H34.2635H34.2534H34.2433H34.2332H34.2231H34.213H34.2029H34.1928H34.1828H34.1727H34.1626H34.1525H34.1424H34.1323H34.1222H34.1121H34.102H34.0919H34.0819H34.0718H34.0617H34.0516H34.0415H34.0314H34.0213H34.0112H34.0011H33.991H33.981H33.9709H33.9608H33.9507H33.9406H33.9305H33.9204H33.9103H33.9002H33.8901H33.8801H33.87H33.8599H33.8498H33.8397H33.8296H33.8195H33.8094H33.7993H33.7892H33.7792H33.7691H33.759H33.7489H33.7388H33.7287H33.7186H33.7085H33.6984H33.6883H33.6783H33.6682H33.6581H33.648H33.6379H33.6278H33.6177H33.6076H33.5975H33.5875H33.5774H33.5673H33.5572H33.5471H33.537H33.5269H33.5168H33.5067H33.4966H33.4866H33.4765H33.4664H33.4563H33.4462H33.4361H33.426H33.4159H33.4058H33.3957H33.3857H33.3756H33.3655H33.3554H33.3453H33.3352H33.3251H33.315H33.3049H33.2948H33.2848H33.2747H33.2646H33.2545H33.2444H33.2343H33.2242H33.2141H33.204H33.1939H33.1839H33.1738H33.1637H33.1536H33.1435H33.1334H33.1233H33.1132H33.1031H33.093H33.083H33.0729H33.0628H33.0527H33.0426H33.0325H33.0224H33.0123H33.0022H32.9921H32.9821H32.972H32.9619H32.9518H32.9417H32.9316H32.9215H32.9114H32.9013H32.8913H32.8812H32.8711H32.861H32.8509H32.8408H32.8307H32.8206H32.8105H32.8004H32.7904H32.7803H32.7702H32.7601H32.75H32.7399H32.7298H32.7197H32.7096H32.6995H32.6895H32.6794H32.6693H32.6592H32.6491H32.639H32.6289H32.6188H32.6087H32.5986H32.5886H32.5785H32.5684H32.5583H32.5482H32.5381H32.528H32.5179H32.5078H32.4977H32.4877H32.4776H32.4675H32.4574H32.4473H32.4372H32.4271H32.417H32.4069H32.3968H32.3868H32.3767H32.3666H32.3565H32.3464H32.3363H32.3262H32.3161H32.306H32.2959H32.2859H32.2758H32.2657H32.2556H32.2455H32.2354H32.2253H32.2152H32.2051H32.1951H32.185H32.1749H32.1648H32.1547H32.1446H32.1345H32.1244H32.1143H32.1042H32.0942H32.0841H32.074H32.0639H32.0538H32.0437H32.0336H32.0235H32.0134H32.0033H31.9933H31.9832H31.9731H31.963H31.9529H31.9428H31.9327H31.9226H31.9125H31.9024H31.8924H31.8823H31.8722H31.8621H31.852H31.8419H31.8318H31.8217H31.8116H31.8015H31.7915H31.7814H31.7713H31.7612H31.7511H31.741H31.7309H31.7208H31.7107H31.7006H31.6906H31.6805H31.6704H31.6603H31.6502H31.6401H31.63H31.6199H31.6098H31.5998H31.5897H31.5796H31.5695H31.5594H31.5493H31.5392H31.5291H31.519H31.5089H31.4989H31.4888H31.4787H31.4686H31.4585H31.4484H31.4383H31.4282H31.4181H31.408H31.398H31.3879H31.3778H31.3677H31.3576H31.3475H31.3374H31.3273H31.3172H31.3071H31.2971H31.287H31.2769H31.2668H31.2567H31.2466H31.2365H31.2264H31.2163H31.2062H31.1962H31.1861H31.176H31.1659H31.1558H31.1457H31.1356H31.1255H31.1154H31.1053H31.0953H31.0852H31.0751H31.065H31.0549H31.0448H31.0347H31.0246H31.0145H31.0044H30.9944H30.9843H30.9742H30.9641H30.954H30.9439H30.9338H30.9237H30.9136H30.9036H30.8935H30.8834H30.8733H30.8632H30.8531H30.843H30.8329H30.8228H30.8127H30.8027H30.7926H30.7825H30.7724H30.7623H30.7522H30.7421H30.732H30.7219H30.7118H30.7018H30.6917H30.6816H30.6715H30.6614H30.6513H30.6412H30.6311H30.621H30.6109H30.6009H30.5908H30.5807H30.5706H30.5605H30.5504H30.5403H30.5302H30.5201H30.51H30.5H30.4899H30.4798H30.4697H30.4596H30.4495H30.4394H30.4293H30.4192H30.4091H30.3991H30.389H30.3789H30.3688H30.3587H30.3486H30.3385H30.3284H30.3183H30.3083H30.2982H30.2881H30.278H30.2679H30.2578H30.2477H30.2376H30.2275H30.2174H30.2074H30.1973H30.1872H30.1771H30.167H30.1569H30.1468H30.1367H30.1266H30.1165H30.1065H30.0964H30.0863H30.0762H30.0661H30.056H30.0459H30.0358H30.0257H30.0156H30.0056H29.9955H29.9854H29.9753H29.9652H29.9551H29.945H29.9349H29.9248H29.9147H29.9047H29.8946H29.8845H29.8744H29.8643H29.8542H29.8441H29.834H29.5524M29.5524 21.7558V23.6008C29.5622 23.65 29.5824 23.6965 29.6118 23.7372L29.6162 23.7433L29.6196 23.7499L34.8835 33.971L34.936 33.834L29.4524 21.7558M29.5524 21.7558H29.4524M29.4524 21.7558V23.6101C29.4641 23.6771 29.4909 23.7405 29.5307 23.7957L29.4524 21.7558ZM28.5523 23.3853L25.1661 30.0329C25.8025 28.7854 26.4425 27.5412 27.0817 26.2986C27.5036 25.4784 27.9252 24.6589 28.3451 23.8396C28.412 23.6968 28.4485 23.5417 28.4523 23.3841M28.5523 23.3853H28.4523V23.3841M28.5523 23.3853L28.4523 23.383C28.4523 23.3834 28.4523 23.3838 28.4523 23.3841M35.0666 15.234H29.1981C29.0639 15.234 28.949 15.2407 28.8533 15.2612C28.7565 15.282 28.6728 15.3183 28.6073 15.382C28.4783 15.5075 28.4523 15.7087 28.4523 15.9691V15.9836V15.998V16.0125V16.027V16.0415V16.056V16.0705V16.085V16.0994V16.1139V16.1284V16.1429V16.1574V16.1719V16.1863V16.2008V16.2153V16.2298V16.2443V16.2588V16.2733V16.2877V16.3022V16.3167V16.3312V16.3457V16.3602V16.3747V16.3891V16.4036V16.4181V16.4326V16.4471V16.4616V16.476V16.4905V16.505V16.5195V16.534V16.5485V16.563V16.5774V16.5919V16.6064V16.6209V16.6354V16.6499V16.6643V16.6788V16.6933V16.7078V16.7223V16.7368V16.7513V16.7657V16.7802V16.7947V16.8092V16.8237V16.8382V16.8527V16.8671V16.8816V16.8961V16.9106V16.9251V16.9396V16.954V16.9685V16.983V16.9975V17.012V17.0265V17.041V17.0554V17.0699V17.0844V17.0989V17.1134V17.1279V17.1423V17.1568V17.1713V17.1858V17.2003V17.2148V17.2293V17.2437V17.2582V17.2727V17.2872V17.3017V17.3162V17.3307V17.3451V17.3596V17.3741V17.3886V17.4031V17.4176V17.432V17.4465V17.461V17.4755V17.49V17.5045V17.519V17.5334V17.5479V17.5624V17.5769V17.5914V17.6059V17.6203V17.6348V17.6493V17.6638V17.6783V17.6928V17.7073V17.7217V17.7362V17.7507V17.7652V17.7797V17.7942V17.8087V17.8231V17.8376V17.8521V17.8666V17.8811V17.8956V17.91V17.9245V17.939V17.9535V17.968V17.9825V17.997V18.0114V18.0259V18.0404V18.0549V18.0694V18.0839V18.0983V18.1128V18.1273V18.1418V18.1563V18.1708V18.1853V18.1997V18.2142V18.2287V18.2432V18.2577V18.2722V18.2867V18.3011V18.3156V18.3301V18.3446V18.3591V18.3736V18.388V18.4025V18.417V18.4315V18.446V18.4605V18.475V18.4894V18.5039V18.5184V18.5329V18.5474V18.5619V18.5763V18.5908V18.6053V18.6198V18.6343V18.6488V18.6633V18.6777V18.6922V18.7067V18.7212V18.7357V18.7502V18.7647V18.7791V18.7936V18.8081V18.8226V18.8371V18.8516V18.866V18.8805V18.895V18.9095V18.924V18.9385V18.953V18.9674V18.9819V18.9964V19.0109V19.0254V19.0399V19.0543V19.0688V19.0833V19.0978V19.1123V19.1268V19.1413V19.1557V19.1702V19.1847V19.1992V19.2137V19.2282V19.2427V19.2571V19.2716V19.2861V19.3006V19.3151V19.3296V19.344V19.3585V19.373V19.3875V19.402V19.4165V19.431V19.4454V19.4599V19.4744V19.4889V19.5034V19.5179V19.5323V19.5468V19.5613V19.5758V19.5903V19.6048V19.6193V19.6337V19.6482V19.6627V19.6772V19.6917V19.7062V19.7207V19.7351V19.7496V19.7641V19.7786V19.7931V19.8076V19.822V19.8365V19.851V19.8655V19.88V19.8945V19.909V19.9234V19.9379V19.9524V19.9669V19.9814V19.9959V20.0103V20.0248V20.0393V20.0538V20.0683V20.0828V20.0973V20.1117V20.1262V20.1407V20.1552V20.1697V20.1842V20.1987V20.2131V20.2276V20.2421V20.2566V20.2711V20.2856V20.3V20.3145V20.329V20.3435V20.358V20.3725V20.387V20.4014V20.4159V20.4304V20.4449V20.4594V20.4739V20.4883V20.5028V20.5173V20.5318V20.5463V20.5608V20.5753V20.5897V20.6042V20.6187V20.6332V20.6477V20.6622V20.6767V20.6911V20.7056V20.7201V20.7346V20.7491V20.7636V20.778V20.7925V20.807V20.8215V20.836V20.8505V20.865V20.8794V20.8939V20.9084V20.9229V20.9374V20.9519V20.9663V20.9808V20.9953V21.0098V21.0243V21.0388V21.0533V21.0677V21.0822V21.0967V21.1112V21.1257V21.1402V21.1547V21.1691V21.1836V21.1981V21.2126V21.2271V21.2416V21.256V21.2705V21.285V21.2995V21.314V21.3285V21.343V21.3574V21.3719V21.3864V21.4009V21.4154V21.4299V21.4443V21.4588V21.4733V21.4878V21.5023V21.5168V21.5313V21.5457V21.5602V21.5747V21.5892V21.6037V21.6182V21.6327V21.6471V21.6616V21.6761V21.6906V21.7051V21.7196V21.734V21.7485V21.763V21.7775V21.792V21.8065V21.821V21.8354V21.8499V21.8644V21.8789V21.8934V21.9079V21.9223V21.9368V21.9513V21.9658V21.9803V21.9948V22.0093V22.0237V22.0382V22.0527V22.0672V22.0817V22.0962V22.1107V22.1251V22.1396V22.1541V22.1686V22.1831V22.1976V22.212V22.2265V22.241V22.2555V22.27V22.2845V22.299V22.3134V22.3279V22.3424V22.3569V22.3714V22.3859V22.4003V22.4148V22.4293V22.4438V22.4583V22.4728V22.4873V22.5017V22.5162V22.5307V22.5452V22.5597V22.5742V22.5887V22.6031V22.6176V22.6321V22.6466V22.6611V22.6756V22.69V22.7045V22.719V22.7335V22.748V22.7625V22.777V22.7914V22.8059V22.8204V22.8349V22.8494V22.8639V22.8783V22.8928V22.9073V22.9218V22.9363V22.9508V22.9653V22.9797V22.9942V23.0087V23.0232V23.0377V23.0522V23.0667V23.0811V23.0956V23.1101V23.1246V23.1391V23.1536V23.168V23.1825V23.197V23.2115V23.226V23.2405V23.255V23.2694V23.2839V23.2984V23.3129V23.3274V23.3419V23.3563V23.3708V23.3841M35.0666 15.234C35.0659 15.234 35.0652 15.234 35.0645 15.234L35.0685 15.3339V15.234H35.0666ZM23.1756 33.9149L25.166 30.0331L23.1756 33.9149ZM23.1756 33.9149C23.1232 33.8232 23.0886 33.7582 23.0579 33.6846L23.0573 33.6833C22.6759 32.8041 22.2944 31.9153 21.9228 31.0362L21.9228 31.0362L21.9217 31.0337C21.9179 31.0254 21.9141 31.0171 21.9103 31.0086C21.8669 30.9128 21.8184 30.8053 21.7452 30.7229C21.6586 30.6254 21.5407 30.5648 21.3708 30.5648C21.2017 30.5648 21.0798 30.6247 20.9896 30.721C20.9048 30.8115 20.8525 30.9301 20.8089 31.0366C19.6546 33.746 18.4937 36.4554 17.3263 39.1648C16.6347 40.7416 15.9627 42.3151 15.3103 43.8855C15.2105 44.1217 15.2029 44.3462 15.3155 44.5156C15.4282 44.6852 15.6391 44.7667 15.9015 44.7667H44.0405C44.3206 44.7667 44.5527 44.7083 44.677 44.5422C44.8035 44.3733 44.7876 44.1359 44.6819 43.8594C44.6819 43.8593 44.6819 43.8592 44.6818 43.8591L38.5181 27.4442C38.4744 27.3281 38.4247 27.2076 38.341 27.118C38.2513 27.0221 38.1307 26.969 37.9646 26.969C37.8008 26.969 37.6733 27.0179 37.5733 27.1085C37.477 27.1959 37.4138 27.3154 37.363 27.4422L37.3623 27.4441C36.5535 29.5871 35.7448 31.717 34.936 33.8339L23.1756 33.9149ZM29.046 24.9326L38.6717 43.6873H27.5348V43.6863L27.5209 43.6883C27.4494 43.6983 27.3767 43.6823 27.316 43.6432C27.2554 43.6042 27.2108 43.5447 27.1904 43.4756L27.1909 43.4755L27.1869 43.4658L23.8603 35.4047L23.8598 35.4035C23.8361 35.348 23.8238 35.2882 23.8238 35.2279C23.8238 35.1685 23.8357 35.1098 23.8586 35.0551C25.5731 31.6828 27.2974 28.317 29.0314 24.9576L29.046 24.9326ZM35.6294 35.1905L35.6296 35.1906L35.6318 35.1847C36.3944 33.1444 37.1661 31.1041 37.9643 28.994L43.4755 43.6584L39.9697 43.6677C39.9381 43.6613 39.9083 43.6483 39.882 43.6297C39.8539 43.6099 39.8307 43.5841 39.8138 43.5543C38.4122 40.8394 37.0171 38.1245 35.6285 35.4096C35.6135 35.3754 35.6058 35.3384 35.6058 35.3011C35.6058 35.263 35.6139 35.2253 35.6294 35.1905ZM29.5796 20.6276H29.5427V16.3278L29.8686 16.3426L29.8686 16.3427H29.8732H34.7127C34.859 16.3536 34.9983 16.41 35.1108 16.5041C35.6274 16.9627 36.1331 17.4367 36.6526 17.9238C36.8164 18.0773 36.9815 18.232 37.1487 18.388L36.8938 18.6658L35.1335 20.4921L35.1329 20.4927C35.0605 20.5692 34.963 20.617 34.8583 20.6276H34.8527H34.8424H34.8321H34.8218H34.8115H34.8011H34.7908H34.7805H34.7702H34.7599H34.7495H34.7392H34.7289H34.7186H34.7083H34.6979H34.6876H34.6773H34.667H34.6567H34.6463H34.636H34.6257H34.6154H34.6051H34.5947H34.5844H34.5741H34.5638H34.5535H34.5432H34.5328H34.5225H34.5122H34.5019H34.4916H34.4812H34.4709H34.4606H34.4503H34.44H34.4296H34.4193H34.409H34.3987H34.3884H34.378H34.3677H34.3574H34.3471H34.3368H34.3265H34.3161H34.3058H34.2955H34.2852H34.2749H34.2645H34.2542H34.2439H34.2336H34.2233H34.2129H34.2026H34.1923H34.182H34.1717H34.1613H34.151H34.1407H34.1304H34.1201H34.1098H34.0994H34.0891H34.0788H34.0685H34.0582H34.0478H34.0375H34.0272H34.0169H34.0066H33.9962H33.9859H33.9756H33.9653H33.955H33.9446H33.9343H33.924H33.9137H33.9034H33.893H33.8827H33.8724H33.8621H33.8518H33.8415H33.8311H33.8208H33.8105H33.8002H33.7899H33.7795H33.7692H33.7589H33.7486H33.7383H33.7279H33.7176H33.7073H33.697H33.6867H33.6763H33.666H33.6557H33.6454H33.6351H33.6248H33.6144H33.6041H33.5938H33.5835H33.5732H33.5628H33.5525H33.5422H33.5319H33.5216H33.5112H33.5009H33.4906H33.4803H33.47H33.4596H33.4493H33.439H33.4287H33.4184H33.408H33.3977H33.3874H33.3771H33.3668H33.3565H33.3461H33.3358H33.3255H33.3152H33.3049H33.2945H33.2842H33.2739H33.2636H33.2533H33.2429H33.2326H33.2223H33.212H33.2017H33.1913H33.181H33.1707H33.1604H33.1501H33.1397H33.1294H33.1191H33.1088H33.0985H33.0882H33.0778H33.0675H33.0572H33.0469H33.0366H33.0262H33.0159H33.0056H32.9953H32.985H32.9746H32.9643H32.954H32.9437H32.9334H32.923H32.9127H32.9024H32.8921H32.8818H32.8715H32.8611H32.8508H32.8405H32.8302H32.8199H32.8095H32.7992H32.7889H32.7786H32.7683H32.7579H32.7476H32.7373H32.727H32.7167H32.7063H32.696H32.6857H32.6754H32.6651H32.6548H32.6444H32.6341H32.6238H32.6135H32.6032H32.5928H32.5825H32.5722H32.5619H32.5516H32.5412H32.5309H32.5206H32.5103H32.5H32.4896H32.4793H32.469H32.4587H32.4484H32.438H32.4277H32.4174H32.4071H32.3968H32.3865H32.3761H32.3658H32.3555H32.3452H32.3349H32.3245H32.3142H32.3039H32.2936H32.2833H32.2729H32.2626H32.2523H32.242H32.2317H32.2213H32.211H32.2007H32.1904H32.1801H32.1698H32.1594H32.1491H32.1388H32.1285H32.1182H32.1078H32.0975H32.0872H32.0769H32.0666H32.0562H32.0459H32.0356H32.0253H32.015H32.0046H31.9943H31.984H31.9737H31.9634H31.953H31.9427H31.9324H31.9221H31.9118H31.9015H31.8911H31.8808H31.8705H31.8602H31.8499H31.8395H31.8292H31.8189H31.8086H31.7983H31.7879H31.7776H31.7673H31.757H31.7467H31.7363H31.726H31.7157H31.7054H31.6951H31.6847H31.6744H31.6641H31.6538H31.6435H31.6332H31.6228H31.6125H31.6022H31.5919H31.5816H31.5712H31.5609H31.5506H31.5403H31.53H31.5196H31.5093H31.499H31.4887H31.4784H31.468H31.4577H31.4474H31.4371H31.4268H31.4165H31.4061H31.3958H31.3855H31.3752H31.3649H31.3545H31.3442H31.3339H31.3236H31.3133H31.3029H31.2926H31.2823H31.272H31.2617H31.2513H31.241H31.2307H31.2204H31.2101H31.1997H31.1894H31.1791H31.1688H31.1585H31.1482H31.1378H31.1275H31.1172H31.1069H31.0966H31.0862H31.0759H31.0656H31.0553H31.045H31.0346H31.0243H31.014H31.0037H30.9934H30.983H30.9727H30.9624H30.9521H30.9418H30.9315H30.9211H30.9108H30.9005H30.8902H30.8799H30.8695H30.8592H30.8489H30.8386H30.8283H30.8179H30.8076H30.7973H30.787H30.7767H30.7663H30.756H30.7457H30.7354H30.7251H30.7148H30.7044H30.6941H30.6838H30.6735H30.6632H30.6528H30.6425H30.6322H30.6219H30.6116H30.6012H30.5909H30.5806H30.5703H30.56H30.5496H30.5393H30.529H30.5187H30.5084H30.498H30.4877H30.4774H30.4671H30.4568H30.4465H30.4361H30.4258H30.4155H30.4052H30.3949H30.3845H30.3742H30.3639H30.3536H30.3433H30.3329H30.3226H30.3123H30.302H30.2917H30.2813H30.271H30.2607H30.2504H30.2401H30.2298H30.2194H30.2091H30.1988H30.1885H30.1782H30.1678H30.1575H30.1472H30.1369H30.1266H30.1162H30.1059H30.0956H30.0853H30.075H30.0646H30.0543H30.044H30.0337H30.0234H30.013H30.0027H29.9924H29.9821H29.9718H29.9615H29.9511H29.9408H29.9305H29.9202H29.9099H29.8995H29.8892H29.8789H29.8686H29.8583H29.8479H29.8376H29.8273H29.817H29.8067H29.7963H29.786H29.7757H29.7654H29.7551H29.7448H29.7344H29.7241H29.7138H29.7035H29.6932H29.6828H29.6725H29.6622H29.6519H29.6416H29.6312H29.6209H29.6106H29.6003H29.59H29.5796ZM16.6594 43.658L21.4001 32.5225L26.1409 43.658H16.6594Z" fill="white" stroke="white" stroke-width="0.2"/>
<path d="M34.9466 41.6653L34.979 41.6222L34.9608 41.5714C34.9043 41.4141 34.8407 41.26 34.77 41.11L34.77 41.11L34.7693 41.1086L29.9996 31.387C29.9625 31.2952 29.9156 31.2086 29.8597 31.1291C29.7825 31.0137 29.6666 30.9329 29.5337 30.908C29.4016 30.8832 29.2673 30.9166 29.1587 30.9982C29.0459 31.0705 28.9637 31.1855 28.9249 31.3186C28.8857 31.4531 28.8929 31.5991 28.9454 31.7285L28.9454 31.7285L28.9467 31.7314C28.9568 31.7541 28.9693 31.7749 28.98 31.7918C28.9849 31.7996 28.9892 31.8061 28.9931 31.8121C28.999 31.8212 29.0041 31.8291 29.0098 31.8386C29.0279 31.8686 29.0316 31.8828 29.0316 31.8908V31.9139L29.0418 31.9346C30.6258 35.1828 32.2191 38.4205 33.8218 41.6477C33.831 41.6686 33.8404 41.693 33.8513 41.7213L33.8546 41.7299C33.8666 41.7612 33.8803 41.7964 33.8954 41.8289C33.91 41.8604 33.9288 41.8957 33.9533 41.9245C33.972 41.9466 34.0027 41.9746 34.0456 41.9851C34.1995 42.0776 34.3761 42.1161 34.5518 42.0938L34.5646 42.0922L34.5765 42.0874C34.6712 42.0494 34.7417 41.964 34.7948 41.8896C34.8199 41.8545 34.8441 41.8173 34.8668 41.7825C34.8693 41.7786 34.8718 41.7748 34.8743 41.771C34.8997 41.732 34.9231 41.6965 34.9466 41.6653Z" fill="white" stroke="white" stroke-width="0.2"/>
<path d="M32.3315 18.9011C32.5916 18.6705 32.8463 18.4413 33.0987 18.2142C33.4938 17.8587 33.8833 17.5082 34.2795 17.1649C34.3736 17.0648 34.499 17.006 34.6313 17C34.7072 17.0058 34.7799 17.0349 34.8408 17.0839C34.9018 17.133 34.9483 17.1998 34.9749 17.2764C35.0016 17.3531 35.0071 17.4364 34.9909 17.5163C34.9748 17.5963 34.9376 17.6696 34.8838 17.7275C34.7142 17.9145 34.5334 18.0894 34.3427 18.2512C34.1221 18.454 33.903 18.6582 33.6842 18.8622C33.3482 19.1754 33.0128 19.488 32.6742 19.7935C32.3495 20.0941 32.1421 20.065 31.8715 19.7159L31.141 18.7459C31.0966 18.7032 31.0611 18.6508 31.0368 18.5923C31.0126 18.5338 31 18.4705 31 18.4064C31 18.3424 31.0126 18.279 31.0368 18.2205C31.0611 18.162 31.0966 18.1097 31.141 18.0669C31.3123 17.9021 31.5649 17.9506 31.7633 18.193L32.3315 18.9011Z" fill="white"/>
<path d="M32.3315 18.9011C32.5916 18.6705 32.8463 18.4413 33.0987 18.2142C33.4938 17.8587 33.8833 17.5082 34.2795 17.1649C34.3736 17.0648 34.499 17.006 34.6313 17C34.7072 17.0058 34.7799 17.0349 34.8408 17.0839C34.9018 17.133 34.9483 17.1998 34.9749 17.2764C35.0016 17.3531 35.0071 17.4364 34.9909 17.5163C34.9748 17.5963 34.9376 17.6696 34.8838 17.7275C34.7142 17.9145 34.5334 18.0894 34.3427 18.2512C34.1221 18.454 33.903 18.6582 33.6842 18.8622C33.3482 19.1754 33.0128 19.488 32.6742 19.7935C32.3495 20.0941 32.1421 20.065 31.8715 19.7159L31.141 18.7459C31.0966 18.7032 31.0611 18.6508 31.0368 18.5923C31.0126 18.5338 31 18.4705 31 18.4064C31 18.3424 31.0126 18.279 31.0368 18.2205C31.0611 18.162 31.0966 18.1097 31.141 18.0669C31.3123 17.9021 31.5649 17.9506 31.7633 18.193L32.3315 18.9011Z" stroke="white"/>
</g>
<defs>
<filter id="filter0_d_30_18759" x="-16" y="-16" width="100" height="100" filterUnits="userSpaceOnUse" color-interpolation-filters="sRGB">
<feFlood flood-opacity="0" result="BackgroundImageFix"/>
<feColorMatrix in="SourceAlpha" type="matrix" values="0 0 0 0 0 0 0 0 0 0 0 0 0 0 0 0 0 0 127 0" result="hardAlpha"/>
<feOffset dx="4" dy="4"/>
<feGaussianBlur stdDeviation="10"/>
<feColorMatrix type="matrix" values="0 0 0 0 0 0 0 0 0 0 0 0 0 0 0 0 0 0 0.08 0"/>
<feBlend mode="normal" in2="BackgroundImageFix" result="effect1_dropShadow_30_18759"/>
<feBlend mode="normal" in="SourceGraphic" in2="effect1_dropShadow_30_18759" result="shape"/>
</filter>
<linearGradient id="paint0_linear_30_18759" x1="0" y1="30" x2="60" y2="30" gradientUnits="userSpaceOnUse">
<stop stop-color="#6A11CB"/>
<stop offset="1" stop-color="#2575FC"/>
</linearGradient>
<clipPath id="clip0_30_18759">
<rect width="60" height="60" rx="10" fill="white"/>
</clipPath>
</defs>
</svg>
