<svg width="60" height="60" viewBox="0 0 60 60" fill="none" xmlns="http://www.w3.org/2000/svg">
<g clip-path="url(#clip0_30_18673)">
<g filter="url(#filter0_d_30_18673)">
<path d="M60 0H0V60H60V0Z" fill="url(#paint0_linear_30_18673)"/>
</g>
<g clip-path="url(#clip1_30_18673)">
<path d="M44.9646 17.2397C44.8996 16.048 43.9519 15.1004 42.7602 15.0353C40.3556 14.904 35.6503 15.0318 31.151 17.3589C28.8574 18.5453 26.4316 20.5568 24.4957 22.8776C24.4719 22.9062 24.4487 22.9349 24.425 22.9636L20.0316 23.303C19.3085 23.3589 18.6643 23.7379 18.2644 24.3428L15.2671 28.8763C14.9637 29.3351 14.9155 29.9093 15.138 30.4122C15.3605 30.9152 15.8178 31.2657 16.3613 31.3499L20.0627 31.9232C20.0496 31.9951 20.0365 32.067 20.0245 32.139C19.9013 32.8761 20.1455 33.6339 20.6779 34.1662L25.8336 39.3221C26.275 39.7635 26.8714 40.0068 27.4826 40.0068C27.6084 40.0068 27.735 39.9964 27.861 39.9754C27.9329 39.9634 28.0048 39.9503 28.0768 39.9372L28.6501 43.6387C28.7343 44.1821 29.0848 44.6395 29.5876 44.8619C29.7969 44.9545 30.0183 45.0002 30.2387 45.0002C30.5483 45.0002 30.8556 44.9101 31.1235 44.7329L35.6571 41.7356C36.262 41.3355 36.641 40.6914 36.6968 39.9683L37.0362 35.575C37.0648 35.5513 37.0937 35.5281 37.1222 35.5043C39.4431 33.5684 41.4546 31.1426 42.641 28.8489C44.9682 24.3495 45.0958 19.6441 44.9646 17.2397ZM34.6876 40.2692L30.351 43.1364L29.7923 39.529C31.6251 38.9902 33.4382 38.1271 35.1655 36.9708L34.9444 39.8328C34.9306 40.0114 34.837 40.1705 34.6876 40.2692ZM27.0766 38.0791L21.9207 32.9233C21.7892 32.7917 21.7284 32.6068 21.7582 32.4288C21.9115 31.5122 22.1497 30.6397 22.4445 29.8177L30.1805 37.5537C29.1933 37.9073 28.3091 38.1183 27.5711 38.2417C27.3928 38.2713 27.2081 38.2107 27.0766 38.0791ZM20.167 25.0556L23.029 24.8345C21.8727 26.5618 21.0096 28.3748 20.4707 30.2077L16.8635 29.649L19.7307 25.3123C19.8295 25.1629 19.9886 25.0693 20.167 25.0556ZM35.9964 34.1544C34.5765 35.3387 33.1982 36.1953 31.9278 36.8152L23.1844 28.0718C23.9964 26.4134 24.9874 25.0324 25.8455 24.0036C27.637 21.8558 29.8652 20.003 31.9587 18.9202C36.088 16.7843 40.4387 16.6693 42.6645 16.7904C42.9591 16.8065 43.1934 17.0408 43.2095 17.3355C43.3308 19.5613 43.2156 23.9119 41.0797 28.0413C39.9969 30.1348 38.1441 32.3628 35.9964 34.1544Z" fill="white"/>
<path d="M35.5499 28.8425C36.675 28.8424 37.8006 28.4141 38.6572 27.5575C39.4873 26.7275 39.9443 25.6239 39.9443 24.4502C39.9443 23.2764 39.4872 22.1729 38.6572 21.3429C36.9438 19.6295 34.1559 19.6296 32.4426 21.3429C31.6126 22.1729 31.1555 23.2764 31.1555 24.4502C31.1555 25.6239 31.6127 26.7275 32.4426 27.5575C33.2994 28.4142 34.4244 28.8426 35.5499 28.8425ZM33.6855 22.5858C34.1995 22.0718 34.8746 21.8148 35.5498 21.8148C36.225 21.8148 36.9002 22.0718 37.4142 22.5858C37.9122 23.0838 38.1864 23.7459 38.1864 24.4501C38.1864 25.1544 37.9122 25.8165 37.4142 26.3145C36.3862 27.3426 34.7134 27.3425 33.6854 26.3145C33.1874 25.8165 32.9132 25.1544 32.9132 24.4502C32.9132 23.746 33.1875 23.0838 33.6855 22.5858Z" fill="white"/>
<path d="M15.8967 39.7226C16.1216 39.7226 16.3466 39.6368 16.5181 39.4651L19.3877 36.5956C19.7309 36.2524 19.7309 35.6959 19.3877 35.3526C19.0445 35.0094 18.4879 35.0094 18.1447 35.3526L15.2753 38.2222C14.932 38.5654 14.932 39.1219 15.2753 39.4651C15.4468 39.6367 15.6718 39.7226 15.8967 39.7226Z" fill="white"/>
<path d="M22.0172 37.9825C21.674 37.6393 21.1175 37.6393 20.7743 37.9825L15.2574 43.4994C14.9142 43.8427 14.9142 44.3991 15.2574 44.7424C15.4291 44.914 15.6539 44.9998 15.8789 44.9998C16.1038 44.9998 16.3288 44.914 16.5003 44.7423L22.0172 39.2255C22.3605 38.8822 22.3605 38.3258 22.0172 37.9825Z" fill="white"/>
<path d="M23.404 40.6124L20.5345 43.4819C20.1913 43.8252 20.1913 44.3816 20.5345 44.7249C20.7062 44.8965 20.9311 44.9823 21.156 44.9823C21.3809 44.9823 21.6059 44.8966 21.7774 44.7249L24.6469 41.8554C24.9902 41.5121 24.9902 40.9557 24.6469 40.6124C24.3037 40.2692 23.7472 40.2692 23.404 40.6124Z" fill="white"/>
</g>
</g>
<defs>
<filter id="filter0_d_30_18673" x="-16" y="-16" width="100" height="100" filterUnits="userSpaceOnUse" color-interpolation-filters="sRGB">
<feFlood flood-opacity="0" result="BackgroundImageFix"/>
<feColorMatrix in="SourceAlpha" type="matrix" values="0 0 0 0 0 0 0 0 0 0 0 0 0 0 0 0 0 0 127 0" result="hardAlpha"/>
<feOffset dx="4" dy="4"/>
<feGaussianBlur stdDeviation="10"/>
<feColorMatrix type="matrix" values="0 0 0 0 0 0 0 0 0 0 0 0 0 0 0 0 0 0 0.08 0"/>
<feBlend mode="normal" in2="BackgroundImageFix" result="effect1_dropShadow_30_18673"/>
<feBlend mode="normal" in="SourceGraphic" in2="effect1_dropShadow_30_18673" result="shape"/>
</filter>
<linearGradient id="paint0_linear_30_18673" x1="0" y1="30" x2="60" y2="30" gradientUnits="userSpaceOnUse">
<stop stop-color="#6A11CB"/>
<stop offset="1" stop-color="#2575FC"/>
</linearGradient>
<clipPath id="clip0_30_18673">
<rect width="60" height="60" rx="10" fill="white"/>
</clipPath>
<clipPath id="clip1_30_18673">
<rect width="30" height="30" fill="white" transform="translate(15 15)"/>
</clipPath>
</defs>
</svg>
