<svg width="60" height="60" viewBox="0 0 60 60" fill="none" xmlns="http://www.w3.org/2000/svg">
<g clip-path="url(#clip0_30_18688)">
<g filter="url(#filter0_d_30_18688)">
<path d="M60 0H0V60H60V0Z" fill="url(#paint0_linear_30_18688)"/>
</g>
<g clip-path="url(#clip1_30_18688)">
<path d="M32.0789 45H27.9214C26.9064 45 26.0426 44.3062 25.8201 43.3137L25.2926 40.9725C24.4339 40.6087 23.6164 40.1337 22.8501 39.555L20.5726 40.2737C19.5951 40.575 18.5326 40.1612 18.0426 39.2887L15.9701 35.7037C15.4739 34.8162 15.6414 33.7225 16.3726 33.035L18.1376 31.4125C18.0839 30.9375 18.0564 30.4637 18.0564 30C18.0564 29.5363 18.0826 29.0625 18.1364 28.5875L16.3801 26.9725C15.6414 26.2775 15.4726 25.185 15.9639 24.3088L18.0489 20.7025C18.5339 19.84 19.5951 19.4225 20.5701 19.7262L22.8501 20.445C23.6164 19.8662 24.4351 19.3912 25.2926 19.0275L25.8201 16.685C26.0426 15.6938 26.9064 15 27.9214 15H32.0789C33.0939 15 33.9576 15.6937 34.1801 16.6862L34.7076 19.0275C35.5664 19.3912 36.3839 19.8662 37.1501 20.445L39.4276 19.7262C40.4026 19.4212 41.4664 19.8387 41.9576 20.7112L44.0301 24.2962C44.5264 25.1837 44.3589 26.2775 43.6276 26.965L41.8626 28.5875C41.9164 29.0625 41.9426 29.5363 41.9426 30C41.9426 30.4637 41.9164 30.9375 41.8626 31.4125L43.6201 33.0275C43.6226 33.03 43.6251 33.0325 43.6276 33.035C44.3589 33.7225 44.5276 34.815 44.0364 35.6912L41.9514 39.2975C41.4651 40.16 40.4039 40.5775 39.4301 40.2737L37.1489 39.5537C36.3826 40.1325 35.5639 40.6075 34.7064 40.9713L34.1789 43.3137C33.9576 44.3062 33.0939 45 32.0789 45V45ZM23.0426 37.5738C23.2576 37.5738 23.4689 37.6475 23.6401 37.7875C24.4964 38.4937 25.4339 39.0375 26.4251 39.4038C26.7226 39.5138 26.9451 39.7675 27.0151 40.0775L27.6514 42.9025C27.6801 43.0313 27.7951 43.125 27.9239 43.125H32.0814C32.2101 43.125 32.3239 43.0312 32.3539 42.9037L32.9901 40.0787C33.0601 39.7687 33.2814 39.515 33.5801 39.405C34.5714 39.0388 35.5089 38.4938 36.3651 37.7888C36.6101 37.5863 36.9389 37.5212 37.2439 37.6175L39.9951 38.4862C40.1251 38.5262 40.2651 38.4812 40.3264 38.37L42.4114 34.765C42.4739 34.6538 42.4514 34.5012 42.3501 34.4037L40.2401 32.4637C40.0101 32.2525 39.9014 31.9425 39.9489 31.6338C40.0314 31.0838 40.0739 30.5337 40.0739 30C40.0739 29.4663 40.0326 28.9175 39.9489 28.3662C39.9026 28.0575 40.0114 27.7475 40.2401 27.5363L42.3551 25.5912C42.4501 25.5012 42.4751 25.3475 42.4051 25.2237L40.3326 21.64C40.2651 21.5212 40.1301 21.475 39.9926 21.515L37.2451 22.3825C36.9401 22.4788 36.6114 22.4138 36.3664 22.2113C35.5101 21.505 34.5726 20.9612 33.5814 20.595C33.2839 20.485 33.0614 20.2313 32.9914 19.9213L32.3551 17.0963C32.3214 16.9688 32.2076 16.875 32.0789 16.875H27.9214C27.7926 16.875 27.6789 16.9688 27.6489 17.0963L27.0126 19.9225C26.9439 20.2325 26.7214 20.485 26.4239 20.5963C25.4326 20.9625 24.4951 21.5062 23.6389 22.2125C23.3939 22.415 23.0651 22.4788 22.7601 22.3838L20.0089 21.515C19.8789 21.475 19.7389 21.5212 19.6776 21.6312L17.5926 25.235C17.5289 25.3475 17.5539 25.5013 17.6564 25.5988L19.7651 27.5363C19.9951 27.7475 20.1039 28.0575 20.0564 28.3662C19.9739 28.9162 19.9314 29.4663 19.9314 30C19.9314 30.5337 19.9726 31.0825 20.0564 31.6338C20.1026 31.9425 19.9939 32.2525 19.7651 32.4637L17.6501 34.4088C17.5551 34.4988 17.5301 34.6525 17.6001 34.7763L19.6726 38.36C19.7414 38.48 19.8776 38.5288 20.0126 38.485L22.7601 37.6175C22.8526 37.5875 22.9476 37.5738 23.0426 37.5738V37.5738Z" fill="white"/>
<path d="M29.0639 35C28.9926 35 28.9226 34.9925 28.8514 34.9763C28.3476 34.86 28.0326 34.3563 28.1489 33.8525L30.0239 25.7275C30.1401 25.2213 30.6501 24.91 31.1476 25.0238C31.6514 25.14 31.9664 25.6438 31.8501 26.1475L29.9751 34.2725C29.8751 34.7075 29.4901 35 29.0639 35Z" fill="white"/>
<path d="M34.0625 33.75C33.8063 33.75 33.5513 33.6462 33.365 33.44C33.0188 33.055 33.05 32.4625 33.435 32.115L35.7863 30L33.435 27.885C33.05 27.5387 33.0188 26.9462 33.365 26.56C33.7125 26.1762 34.305 26.145 34.69 26.49L37.815 29.3025C38.0125 29.4812 38.125 29.735 38.125 30C38.125 30.265 38.0125 30.5187 37.815 30.6975L34.69 33.51C34.51 33.6712 34.2863 33.75 34.0625 33.75V33.75Z" fill="white"/>
<path d="M25.9375 33.7502C25.7137 33.7502 25.49 33.6714 25.31 33.5102L22.185 30.6977C21.9875 30.5189 21.875 30.2652 21.875 30.0002C21.875 29.7352 21.9875 29.4814 22.185 29.3027L25.31 26.4902C25.695 26.1439 26.2862 26.1752 26.635 26.5602C26.9812 26.9452 26.95 27.5377 26.565 27.8852L24.2137 30.0002L26.565 32.1152C26.95 32.4614 26.9812 33.0539 26.635 33.4402C26.4487 33.6464 26.1937 33.7502 25.9375 33.7502Z" fill="white"/>
</g>
</g>
<defs>
<filter id="filter0_d_30_18688" x="-16" y="-16" width="100" height="100" filterUnits="userSpaceOnUse" color-interpolation-filters="sRGB">
<feFlood flood-opacity="0" result="BackgroundImageFix"/>
<feColorMatrix in="SourceAlpha" type="matrix" values="0 0 0 0 0 0 0 0 0 0 0 0 0 0 0 0 0 0 127 0" result="hardAlpha"/>
<feOffset dx="4" dy="4"/>
<feGaussianBlur stdDeviation="10"/>
<feColorMatrix type="matrix" values="0 0 0 0 0 0 0 0 0 0 0 0 0 0 0 0 0 0 0.08 0"/>
<feBlend mode="normal" in2="BackgroundImageFix" result="effect1_dropShadow_30_18688"/>
<feBlend mode="normal" in="SourceGraphic" in2="effect1_dropShadow_30_18688" result="shape"/>
</filter>
<linearGradient id="paint0_linear_30_18688" x1="0" y1="30" x2="60" y2="30" gradientUnits="userSpaceOnUse">
<stop stop-color="#6A11CB"/>
<stop offset="1" stop-color="#2575FC"/>
</linearGradient>
<clipPath id="clip0_30_18688">
<rect width="60" height="60" rx="10" fill="white"/>
</clipPath>
<clipPath id="clip1_30_18688">
<rect width="30" height="30" fill="white" transform="translate(15 15)"/>
</clipPath>
</defs>
</svg>
