<svg width="60" height="60" viewBox="0 0 60 60" fill="none" xmlns="http://www.w3.org/2000/svg">
<g clip-path="url(#clip0_30_18645)">
<g filter="url(#filter0_d_30_18645)">
<path d="M60 0H0V60H60V0Z" fill="url(#paint0_linear_30_18645)"/>
</g>
<g clip-path="url(#clip1_30_18645)">
<path d="M36.25 27.5H38.75V26.1875C39.5095 26.0333 40.1845 25.6024 40.6442 24.9784C41.1038 24.3545 41.3152 23.582 41.2373 22.8109C41.1594 22.0399 40.7978 21.3253 40.2227 20.8059C39.6476 20.2864 38.9 19.9992 38.125 20H36.875C36.7092 20 36.5502 19.9342 36.433 19.8169C36.3158 19.6997 36.25 19.5408 36.25 19.375C36.25 19.2092 36.3158 19.0503 36.433 18.9331C36.5502 18.8158 36.7092 18.75 36.875 18.75H41.25V16.25H38.75V15H36.25V16.3125C35.4905 16.4667 34.8154 16.8976 34.3558 17.5216C33.8962 18.1455 33.6848 18.918 33.7627 19.6891C33.8405 20.4601 34.2021 21.1747 34.7773 21.6941C35.3524 22.2136 36.1 22.5008 36.875 22.5H38.125C38.2907 22.5 38.4497 22.5658 38.5669 22.6831C38.6841 22.8003 38.75 22.9592 38.75 23.125C38.75 23.2908 38.6841 23.4497 38.5669 23.5669C38.4497 23.6842 38.2907 23.75 38.125 23.75H33.75V26.25H36.25V27.5Z" fill="white"/>
<path d="M43.75 28.75H31.25V16.25C31.25 15.9185 31.1183 15.6005 30.8839 15.3661C30.6495 15.1317 30.3315 15 30 15C27.0333 15 24.1332 15.8797 21.6665 17.528C19.1997 19.1762 17.2771 21.5189 16.1418 24.2597C15.0065 27.0006 14.7094 30.0166 15.2882 32.9264C15.867 35.8361 17.2956 38.5088 19.3934 40.6066C21.4912 42.7044 24.1639 44.133 27.0737 44.7118C29.9834 45.2906 32.9994 44.9935 35.7403 43.8582C38.4812 42.7229 40.8238 40.8003 42.4721 38.3336C44.1203 35.8668 45 32.9667 45 30C45 29.6685 44.8683 29.3505 44.6339 29.1161C44.3995 28.8817 44.0815 28.75 43.75 28.75ZM28.75 27.2453L21.4688 20.875C23.4658 19.0005 26.0248 17.8363 28.75 17.5625V27.2453ZM19.8224 22.7555L28.1719 30.0608L20.3261 37.9063C18.5888 35.7873 17.5979 33.1549 17.5069 30.4163C17.4158 27.6777 18.2296 24.9853 19.8224 22.7556V22.7555ZM30 42.5C27.1167 42.5026 24.3221 41.5036 22.0938 39.6739L30.5178 31.25H42.4375C42.1237 34.3317 40.6784 37.1876 38.3811 39.2656C36.0838 41.3435 33.0977 42.496 30 42.5Z" fill="white"/>
</g>
</g>
<defs>
<filter id="filter0_d_30_18645" x="-16" y="-16" width="100" height="100" filterUnits="userSpaceOnUse" color-interpolation-filters="sRGB">
<feFlood flood-opacity="0" result="BackgroundImageFix"/>
<feColorMatrix in="SourceAlpha" type="matrix" values="0 0 0 0 0 0 0 0 0 0 0 0 0 0 0 0 0 0 127 0" result="hardAlpha"/>
<feOffset dx="4" dy="4"/>
<feGaussianBlur stdDeviation="10"/>
<feColorMatrix type="matrix" values="0 0 0 0 0 0 0 0 0 0 0 0 0 0 0 0 0 0 0.08 0"/>
<feBlend mode="normal" in2="BackgroundImageFix" result="effect1_dropShadow_30_18645"/>
<feBlend mode="normal" in="SourceGraphic" in2="effect1_dropShadow_30_18645" result="shape"/>
</filter>
<linearGradient id="paint0_linear_30_18645" x1="0" y1="30" x2="60" y2="30" gradientUnits="userSpaceOnUse">
<stop stop-color="#6A11CB"/>
<stop offset="1" stop-color="#2575FC"/>
</linearGradient>
<clipPath id="clip0_30_18645">
<rect width="60" height="60" rx="10" fill="white"/>
</clipPath>
<clipPath id="clip1_30_18645">
<rect width="30" height="30" fill="white" transform="translate(15 15)"/>
</clipPath>
</defs>
</svg>
