<?xml version="1.0" standalone="no"?>
<!DOCTYPE svg PUBLIC "-//W3C//DTD SVG 20010904//EN"
 "http://www.w3.org/TR/2001/REC-SVG-20010904/DTD/svg10.dtd">
<svg version="1.0" xmlns="http://www.w3.org/2000/svg"
 width="1008.000000pt" height="1008.000000pt" viewBox="0 0 1008.000000 1008.000000"
 preserveAspectRatio="xMidYMid meet">
<metadata>
Created by potrace 1.14, written by Peter Selinger 2001-2017
</metadata>
<g transform="translate(0.000000,1008.000000) scale(0.100000,-0.100000)"
fill="#000000" stroke="none">
<path d="M5550 10071 c0 -6 -4 -11 -10 -11 -5 0 -39 -18 -75 -40 -36 -22 -70
-40 -75 -40 -6 0 -10 -4 -10 -9 0 -5 -10 -13 -22 -17 -20 -6 -95 -51 -108 -64
-3 -3 -10 -6 -15 -7 -8 -1 -223 -124 -285 -163 -53 -33 -174 -100 -180 -100
-5 0 -10 -4 -12 -8 -1 -5 -28 -22 -58 -38 -85 -46 -104 -58 -112 -69 -4 -5 -8
-6 -8 -1 0 5 -8 2 -17 -6 -27 -22 -160 -98 -172 -98 -6 0 -11 -4 -11 -9 0 -5
-8 -11 -17 -15 -20 -6 -75 -37 -95 -53 -7 -6 -38 -23 -68 -40 -30 -16 -74 -42
-97 -56 -24 -15 -43 -25 -43 -21 0 3 -7 -1 -15 -9 -8 -9 -20 -17 -27 -19 -10
-4 -10 -9 2 -24 15 -18 14 -18 -11 -2 -25 16 -28 15 -200 -84 -96 -55 -196
-112 -224 -127 -27 -16 -72 -41 -100 -56 -27 -15 -62 -36 -77 -46 -14 -11 -29
-19 -32 -19 -3 0 -29 -14 -58 -31 -58 -35 -87 -51 -163 -93 -27 -16 -54 -31
-60 -36 -5 -4 -46 -26 -90 -50 -44 -24 -92 -51 -107 -61 -14 -11 -30 -19 -34
-19 -4 0 -24 -11 -43 -23 -59 -39 -322 -187 -332 -187 -5 0 -9 -4 -9 -10 0 -5
-4 -10 -8 -10 -8 0 -398 -231 -417 -247 -5 -5 -35 -23 -65 -41 -30 -18 -62
-37 -70 -42 -241 -147 -432 -260 -440 -260 -6 0 -10 -3 -10 -7 0 -5 -25 -21
-55 -38 l-55 -29 0 -897 0 -897 43 23 c23 12 119 67 212 120 94 54 195 111
225 128 30 17 71 40 90 52 19 12 45 25 58 29 12 4 22 11 22 15 0 4 16 13 35
21 19 8 35 17 35 21 0 4 8 9 18 12 9 3 49 24 87 47 130 75 152 81 135 35 -7
-17 -6 -25 1 -25 8 0 8 -4 1 -12 -5 -7 -6 -22 -2 -33 4 -11 4 -34 -1 -52 -4
-18 -3 -36 2 -39 5 -3 5 -12 0 -23 -5 -9 -6 -23 -2 -29 4 -7 5 -33 1 -58 -4
-24 -3 -47 2 -50 4 -3 4 -13 -1 -23 -5 -9 -6 -23 -2 -30 5 -7 5 -30 1 -51 -4
-21 -4 -44 1 -51 4 -7 3 -21 -2 -30 -5 -10 -5 -20 -1 -23 5 -3 6 -28 2 -56 -4
-27 -3 -50 2 -50 5 0 4 -8 -1 -18 -6 -11 -6 -24 0 -34 5 -9 6 -19 1 -22 -6 -3
-8 -61 -2 -61 1 0 2 -21 3 -48 1 -26 -1 -47 -4 -47 -7 0 -3 -55 5 -69 4 -5 2
-12 -4 -16 -7 -4 -7 -12 0 -25 6 -12 7 -21 0 -25 -5 -3 -6 -15 -1 -27 4 -12 5
-37 1 -55 -5 -18 -4 -36 1 -39 5 -3 5 -12 0 -23 -5 -9 -6 -23 -2 -29 4 -7 5
-33 1 -58 -4 -24 -3 -47 2 -50 4 -3 4 -13 -1 -23 -5 -9 -6 -23 -2 -29 4 -7 5
-33 1 -57 -4 -25 -3 -45 2 -45 5 0 4 -8 -1 -18 -6 -11 -6 -24 0 -34 5 -9 6
-19 1 -22 -5 -3 -7 -20 -5 -38 3 -29 4 -77 2 -128 0 -14 -154 -107 -428 -261
-25 -14 -86 -49 -135 -77 -49 -29 -93 -52 -97 -52 -5 0 -9 -4 -9 -9 0 -5 -6
-11 -13 -13 -6 -2 -72 -37 -144 -78 l-132 -75 -1 -897 c0 -494 3 -898 8 -898
4 1 25 12 47 25 22 13 60 34 85 47 25 13 47 26 50 29 4 5 37 23 170 95 19 10
37 21 40 24 3 3 14 10 25 16 11 6 43 24 70 39 28 16 66 37 85 47 19 11 44 25
55 31 211 124 318 179 325 167 5 -7 4 -24 -1 -37 -5 -13 -5 -23 1 -23 5 0 5
-12 0 -29 -4 -15 -4 -34 0 -41 5 -7 5 -20 2 -29 -3 -8 -6 -27 -6 -41 0 -14 3
-33 6 -41 3 -9 2 -22 -2 -29 -5 -8 -6 -18 -3 -23 7 -12 10 -97 3 -97 -7 0 -4
-89 3 -97 4 -3 2 -13 -3 -22 -5 -10 -5 -23 -1 -29 4 -7 5 -33 1 -58 -4 -24 -3
-47 2 -50 4 -3 4 -13 -1 -23 -5 -9 -6 -23 -2 -30 5 -7 5 -30 1 -51 -4 -21 -4
-44 1 -51 4 -7 3 -21 -2 -30 -5 -10 -5 -20 -1 -23 5 -3 6 -28 2 -56 -4 -27 -3
-50 2 -50 5 0 4 -8 -1 -18 -6 -11 -6 -24 0 -34 5 -9 6 -19 1 -22 -6 -3 -8 -61
-2 -61 1 0 2 -21 3 -48 1 -26 -1 -47 -4 -47 -7 0 -3 -55 5 -69 4 -5 2 -12 -4
-16 -7 -4 -7 -12 0 -25 6 -12 7 -21 0 -25 -5 -3 -6 -15 -1 -27 4 -12 5 -37 1
-55 -5 -18 -4 -36 1 -39 5 -3 5 -12 0 -23 -5 -9 -6 -23 -2 -29 4 -7 5 -33 1
-58 -4 -24 -3 -47 2 -50 4 -3 4 -13 -1 -23 -6 -10 -6 -23 -1 -31 5 -8 7 -17 5
-20 -6 -9 -7 -71 -3 -93 4 -16 55 -54 123 -89 33 -17 120 -67 194 -110 25 -15
69 -40 96 -54 28 -15 53 -31 56 -36 3 -5 10 -10 15 -10 5 0 35 -15 67 -34 32
-19 62 -34 68 -34 5 0 9 -3 9 -7 0 -5 10 -13 23 -19 31 -15 117 -62 152 -84
17 -10 52 -31 79 -45 27 -15 110 -63 185 -108 75 -45 145 -87 156 -93 11 -6
72 -42 135 -81 63 -38 135 -81 160 -95 l46 -26 17 21 c9 12 17 18 17 15 0 -4
35 14 78 39 42 25 97 57 121 71 25 14 67 38 93 53 27 16 53 29 58 29 4 0 10 3
12 8 2 4 20 16 40 27 20 11 99 56 175 100 210 123 266 155 288 165 11 6 34 19
50 30 17 11 37 23 45 27 8 4 60 34 115 66 55 33 118 69 141 82 22 12 148 85
280 161 131 76 249 143 261 148 13 6 23 14 23 19 0 4 6 7 14 7 7 0 25 9 40 21
14 11 26 17 26 14 0 -4 15 4 34 19 19 14 37 26 39 26 2 0 44 23 93 51 522 301
704 405 728 418 17 9 35 20 40 24 23 17 220 127 228 127 4 0 8 4 8 8 0 5 19
16 43 27 23 10 53 26 67 35 20 14 345 203 601 349 25 14 143 82 262 151 119
69 229 132 244 140 16 8 46 26 68 39 22 13 56 33 75 43 137 77 266 154 268
160 2 4 10 8 17 8 10 0 13 169 13 914 l0 915 -157 93 c-85 51 -165 98 -176
105 -11 7 -30 18 -42 24 -13 7 -23 16 -23 21 0 5 -4 7 -9 4 -5 -3 -26 7 -47
22 -22 16 -54 35 -71 43 -18 7 -33 17 -33 21 0 5 -4 8 -9 8 -12 0 -165 93
-169 103 -2 4 -9 7 -14 7 -10 0 -61 29 -188 108 -14 9 -27 15 -29 13 -2 -1 -7
2 -10 7 -3 5 -22 18 -41 28 -19 11 -46 27 -60 36 -41 26 -388 232 -415 246
-14 7 -23 17 -20 22 3 4 51 34 107 66 56 33 110 64 119 69 10 6 57 33 104 60
48 28 95 55 104 60 9 6 50 29 91 53 41 23 82 47 90 52 55 35 173 100 181 100
5 0 9 4 9 9 0 5 12 14 28 20 15 6 56 28 92 50 36 22 92 54 125 71 33 18 67 39
76 46 8 8 18 14 21 14 3 0 35 17 69 39 35 21 74 41 87 45 12 4 22 12 22 17 0
5 4 9 9 9 9 0 120 63 157 90 l22 15 -2 900 c-1 592 -4 900 -11 900 -12 1 -21
6 -191 108 -53 31 -100 57 -105 57 -5 0 -9 5 -9 10 0 6 -5 10 -11 10 -6 0 -30
12 -53 28 -22 15 -54 34 -71 42 -16 8 -32 17 -35 20 -3 3 -15 11 -28 17 -12 7
-32 19 -45 25 -12 7 -24 15 -27 18 -3 3 -18 12 -35 20 -16 8 -32 18 -35 21 -3
4 -23 16 -45 28 -22 12 -65 37 -95 56 -30 19 -61 34 -67 35 -7 0 -13 4 -13 8
0 4 -19 18 -42 30 -24 12 -56 31 -73 42 -16 11 -37 23 -45 27 -8 4 -71 41
-140 82 -69 41 -127 74 -129 72 -2 -1 -7 1 -10 6 -8 11 -301 183 -312 183 -5
0 -9 5 -9 10 0 6 -5 10 -10 10 -6 0 -29 12 -53 27 -23 15 -44 28 -47 28 -3 0
-16 8 -30 16 -92 58 -284 169 -291 169 -5 0 -9 5 -9 10 0 6 -4 10 -10 10 -12
0 -164 92 -168 103 -2 4 -9 7 -15 7 -6 0 -38 17 -71 38 -82 52 -210 129 -271
164 -27 16 -70 42 -95 58 -25 17 -52 33 -60 37 -13 6 -114 67 -166 101 -10 6
-30 18 -44 24 -14 7 -27 15 -30 19 -10 13 -50 20 -50 10z m-1479 -948 c13 -17
13 -17 -6 -3 -11 8 -22 16 -24 17 -2 2 0 3 6 3 6 0 17 -8 24 -17z m220 -128
c107 -63 201 -120 209 -125 8 -6 23 -13 33 -16 9 -4 17 -10 17 -15 0 -5 4 -9
9 -9 5 0 48 -24 95 -52 48 -29 103 -63 124 -76 20 -12 47 -26 59 -32 24 -10
40 -30 24 -30 -6 0 -11 4 -11 9 0 5 -8 11 -17 14 -10 4 -35 16 -55 29 -85 52
-180 109 -215 129 -21 12 -45 27 -54 35 -8 8 -18 14 -21 14 -6 0 -387 225
-396 234 -17 17 24 -5 199 -109z m687 -410 c46 -27 86 -53 90 -59 3 -6 -5 -4
-18 5 -14 9 -58 35 -97 58 -40 24 -73 45 -73 48 0 5 -3 7 98 -52z m146 -91 c4
-11 0 -11 -19 2 -30 20 -31 24 -6 17 11 -3 22 -11 25 -19z m83 -44 c14 0 69
-49 56 -50 -7 0 -13 3 -13 8 0 4 -25 20 -55 37 -30 16 -55 33 -55 38 0 5 13
-1 29 -12 16 -12 33 -21 38 -21z m117 -76 c4 -11 0 -11 -19 2 -30 20 -31 24
-6 17 11 -3 22 -11 25 -19z m166 -95 c276 -165 521 -309 525 -309 2 0 23 -12
47 -27 48 -31 47 -31 173 -105 50 -29 98 -57 107 -63 9 -5 63 -37 120 -69 57
-32 109 -64 117 -70 7 -6 37 -24 67 -41 29 -16 76 -44 106 -61 29 -18 104 -61
165 -97 l113 -65 -25 -16 c-13 -9 -26 -16 -29 -16 -4 0 -154 -86 -203 -116
-13 -8 -24 -14 -25 -13 -2 0 -32 -18 -68 -40 -36 -23 -76 -47 -90 -53 -14 -7
-68 -38 -120 -68 -52 -31 -102 -59 -110 -63 -8 -4 -29 -16 -46 -26 -106 -64
-417 -241 -425 -241 -5 0 -9 -4 -9 -10 0 -5 -4 -10 -9 -10 -5 0 -49 -23 -98
-51 -114 -67 -148 -86 -203 -117 -25 -14 -76 -44 -115 -67 -81 -47 -102 -57
-107 -46 -2 4 -37 26 -78 50 -87 50 -99 57 -240 140 -58 34 -112 66 -120 71
-48 30 -151 90 -154 90 -2 0 -52 29 -111 65 -59 36 -111 65 -116 65 -4 0 -14
6 -21 13 -13 11 -24 18 -80 50 -13 6 -25 14 -28 17 -3 3 -16 11 -30 18 -14 7
-43 24 -65 37 -22 14 -48 28 -57 32 -10 3 -18 9 -18 14 0 5 -4 9 -9 9 -5 0
-70 36 -145 80 -74 44 -140 80 -145 80 -6 0 -11 5 -11 10 0 6 -7 10 -15 10
-18 0 -20 14 -2 28 6 5 44 26 82 47 39 21 77 44 86 51 8 8 18 14 22 14 3 0 30
14 59 31 29 18 67 39 83 49 41 23 137 79 155 90 8 5 76 44 150 86 74 43 149
85 165 96 17 10 44 25 60 33 17 9 37 20 45 25 19 12 162 96 215 125 22 12 66
38 98 56 32 19 70 41 85 49 15 9 55 32 90 53 35 20 67 37 73 37 5 0 9 3 9 8 0
4 13 13 28 19 15 7 50 27 77 44 l49 31 -34 19 c-19 11 -48 29 -65 39 -16 11
-38 23 -47 26 -10 4 -18 10 -18 15 0 5 -7 9 -15 9 -8 0 -15 5 -15 11 0 7 11 4
28 -7 15 -10 70 -43 122 -75z m54 -3620 c1 4 92 -47 144 -81 15 -10 34 -21 42
-25 8 -4 58 -32 110 -63 52 -30 107 -62 123 -69 15 -8 27 -18 27 -23 0 -4 4
-8 10 -8 8 0 260 -144 330 -189 14 -8 28 -14 33 -13 4 1 7 -3 7 -8 0 -6 4 -10
9 -10 7 0 92 -47 161 -90 8 -5 40 -24 70 -42 30 -17 110 -65 178 -105 68 -40
127 -73 133 -73 5 0 9 -3 9 -7 0 -5 17 -16 38 -26 20 -10 48 -26 62 -37 24
-18 24 -19 5 -26 -11 -4 -22 -10 -25 -14 -3 -3 -52 -33 -110 -65 -58 -33 -117
-66 -131 -75 -14 -8 -65 -37 -114 -65 -48 -27 -111 -63 -140 -80 -371 -213
-471 -271 -473 -277 -2 -5 -10 -8 -17 -8 -8 0 -21 -7 -29 -16 -9 -8 -16 -13
-16 -9 0 3 -12 -2 -27 -13 -16 -10 -50 -32 -78 -47 -69 -39 -147 -84 -214
-123 -31 -18 -65 -37 -76 -42 -21 -10 -41 -23 -86 -52 -24 -16 -27 -16 -55 1
-16 10 -49 29 -74 43 -25 14 -110 63 -190 108 -80 46 -167 95 -195 110 -27 14
-69 38 -92 53 -24 15 -47 27 -52 27 -5 0 -16 6 -23 13 -7 6 -31 21 -53 33 -51
27 -116 63 -233 130 -52 30 -98 54 -103 54 -5 0 -9 5 -9 10 0 6 -6 10 -14 10
-7 0 -25 9 -40 21 -14 11 -26 18 -26 15 0 -3 -16 6 -36 19 -20 14 -43 25 -50
25 -8 0 -14 4 -14 8 0 4 -12 13 -27 20 -16 6 -44 21 -63 33 -37 22 -200 114
-237 134 -12 6 -18 16 -15 21 8 12 256 155 289 167 13 5 23 12 23 16 0 4 16
13 35 21 19 8 35 17 35 22 0 4 4 8 9 8 12 0 175 93 179 102 2 4 8 8 14 8 5 0
40 18 76 39 37 21 89 51 116 66 133 74 382 218 394 227 6 6 12 7 12 2 0 -5 4
-4 8 1 4 6 50 35 102 64 99 56 138 79 193 110 130 74 120 71 141 53 10 -10 19
-15 20 -13z"/>
</g>
</svg>
