<svg width="16" height="9" viewBox="0 0 16 9" fill="none" xmlns="http://www.w3.org/2000/svg">
<path d="M1.14442 0.642859C1.41135 0.642315 1.67003 0.739362 1.87556 0.917157L7.99888 6.26001L14.1336 1.10797C14.2505 1.00891 14.3849 0.934931 14.5293 0.89029C14.6736 0.845649 14.8249 0.831225 14.9746 0.84785C15.1243 0.864473 15.2694 0.911816 15.4015 0.987157C15.5336 1.0625 15.6501 1.16435 15.7444 1.28686C15.8393 1.40885 15.9102 1.54922 15.9529 1.69989C15.9957 1.85056 16.0095 2.00857 15.9936 2.16484C15.9777 2.3211 15.9323 2.47254 15.8601 2.61045C15.788 2.74836 15.6904 2.87002 15.5731 2.96843L8.7186 8.7287C8.51418 8.90411 8.25778 9 7.99317 9C7.72855 9 7.47215 8.90411 7.26774 8.7287L0.41328 2.76569C0.297601 2.66557 0.201979 2.54261 0.13189 2.40386C0.0618006 2.2651 0.0186211 2.11327 0.00482525 1.95707C-0.00896963 1.80087 0.00688999 1.64336 0.0514943 1.49356C0.0960996 1.34377 0.168573 1.20463 0.264766 1.08412C0.371072 0.947314 0.50509 0.836791 0.657186 0.760494C0.809282 0.684198 0.975681 0.644024 1.14442 0.642859Z" fill="url(#paint0_linear_67_7516)"/>
<defs>
<linearGradient id="paint0_linear_67_7516" x1="16" y1="4.82143" x2="3.65302e-07" y2="4.82143" gradientUnits="userSpaceOnUse">
<stop stop-color="#6A11CB"/>
<stop offset="1" stop-color="#2575FC"/>
</linearGradient>
</defs>
</svg>
