<svg width="152" height="149" viewBox="0 0 152 149" fill="none" xmlns="http://www.w3.org/2000/svg">
<path d="M19.6383 119.597L18.4272 111.78L110.339 136.407L106.613 144.555C106.641 144.452 60.9772 128.58 19.6383 119.597Z" fill="url(#paint0_linear_30_17121)"/>
<path d="M18.455 111.677L55.1385 29.0557L125.04 43.7087L110.47 136.332L18.455 111.677Z" fill="url(#paint1_linear_30_17121)"/>
<path d="M78.6569 27.644L80.0067 22.6063C80.0067 22.6063 95.3569 23.3034 109.899 29.0732L108.062 33.8703C107.987 33.74 96.2138 29.1528 78.6569 27.644Z" fill="url(#paint2_linear_30_17121)"/>
<path d="M78.657 27.6439L80.0265 29.1128L105.696 34.889L108.063 33.8703C107.987 33.7399 94.7544 28.4311 78.657 27.6439Z" fill="#140047"/>
<path opacity="0.86" d="M27.1449 109.267L106.788 131.158L121.183 47.4133L64.1933 31.0411L27.1449 109.267Z" fill="#9ABAB3"/>
<path d="M106.788 131.158C74.4123 114.219 23.6144 108.872 23.6144 108.872L59.7563 26.2158C95.7113 25.2716 126.991 35.1956 126.991 35.1956L126.936 35.4012L106.788 131.158Z" fill="url(#paint3_linear_30_17121)"/>
<path opacity="0.62" d="M61.3047 38.5313C61.3047 38.5313 73.8662 37.7099 95.0396 42.1712L93.9377 46.2836C93.9377 46.2836 80.1686 42.1534 59.6558 41.3953L61.3047 38.5313Z" fill="url(#paint4_linear_30_17121)"/>
<path opacity="0.62" d="M47.5692 69.2306C47.5692 69.2306 62.486 71.1339 81.2525 75.942L80.3434 79.3347C80.3434 79.3347 66.5743 75.2045 45.6045 72.4507L47.5692 69.2306Z" fill="url(#paint5_linear_30_17121)"/>
<path opacity="0.62" d="M41.5313 84.362C41.5313 84.362 56.6463 86.7592 75.4128 91.5673L74.6415 94.446C74.6415 94.446 61.9206 90.9272 40.3212 87.2333L41.5313 84.362Z" fill="url(#paint6_linear_30_17121)"/>
<path opacity="0.62" d="M54.3138 53.5176C54.3138 53.5176 69.4234 54.7012 89.0473 59.1881L87.7196 62.9094C87.7196 62.9094 74.437 59.0198 52.6649 56.3815L54.3138 53.5176Z" fill="url(#paint7_linear_30_17121)"/>
<path d="M55.2082 51.0024L59.0845 43.1156L59.1873 43.1431C59.3929 43.1982 78.5215 43.3651 99.9059 49.095C100.214 49.1777 100.42 49.2328 100.728 49.3154L100.831 49.343L98.3795 58.493L98.2767 58.4655C98.071 58.4104 77.6798 53.4975 55.4138 51.0575L55.2082 51.0024ZM59.1322 43.3487L55.4689 50.8519C76.8573 53.2771 96.5564 57.8944 98.1261 58.2048L100.468 49.4659C100.262 49.4108 99.9536 49.3282 99.748 49.2731C79.0557 43.8388 60.421 43.4737 59.1322 43.3487Z" fill="url(#paint8_linear_30_17121)"/>
<path d="M47.832 67.4278L47.8596 67.325L51.791 59.2325L51.8938 59.2601C52.0994 59.3152 73.3097 61.5826 94.5914 67.285C95.0026 67.3951 95.311 67.4778 95.7223 67.588L95.8251 67.6155L93.208 77.3825L93.1052 77.3549C92.7968 77.2723 70.6927 71.3495 48.0376 67.4829L47.832 67.4278ZM51.9415 59.4933L48.1955 67.3048C70.1034 71.0814 91.4126 76.681 93.0575 77.1217L95.5644 67.766C74.6187 62.0435 53.3331 59.6458 51.9415 59.4933Z" fill="url(#paint9_linear_30_17121)"/>
<path d="M41.2527 82.5241L41.2803 82.4213L44.8959 74.6849L44.9987 74.7125C45.2043 74.7676 68.5864 78.3882 89.7652 84.0631C90.2793 84.2008 90.6905 84.311 91.2046 84.4487L91.3074 84.4763L88.7454 94.0376L88.6426 94.0101C88.437 93.955 65.2718 86.646 41.328 82.6544L41.2527 82.5241ZM44.9711 74.8153L41.541 82.2707C64.6073 86.2475 86.9022 93.103 88.6225 93.6741L91.0742 84.524C90.663 84.4138 90.1489 84.2761 89.7377 84.1659C69.0729 78.6288 46.5408 75.1257 44.9711 74.8153Z" fill="url(#paint10_linear_30_17121)"/>
<path d="M35.1265 96.7502L35.1541 96.6474L38.7697 88.9111L38.8725 88.9386C39.1809 89.0212 66.1762 92.7285 87.017 100.076L87.1198 100.103L84.7783 108.842L84.6755 108.815C84.4698 108.76 59.1181 100.975 35.2018 96.8805L35.1265 96.7502ZM38.9202 89.1718L35.4901 96.6272C58.5564 100.604 82.9351 107.908 84.6553 108.479L86.8867 100.151C66.6351 93.0718 40.5175 89.3794 38.9202 89.1718Z" fill="url(#paint11_linear_30_17121)"/>
<path d="M104.186 127.706C94.3554 121.215 82.2991 118.095 82.1963 118.068L82.2514 117.862C82.3542 117.89 94.5409 120.935 104.344 127.528L104.186 127.706Z" fill="url(#paint12_linear_30_17121)"/>
<path opacity="0.3" d="M106.788 131.158C74.4124 114.219 23.6144 108.872 23.6144 108.872L59.7563 26.2159C59.7563 26.2159 38.7577 81.9658 44.3265 97.7829C50.6608 115.678 86.1745 122.55 96.701 109.172C109.734 92.6093 125.972 38.9997 126.833 35.3738L106.788 131.158Z" fill="url(#paint13_linear_30_17121)"/>
<path d="M87.7399 23.356L87.9086 25.605L103.886 28.8946L104.794 27.1542C104.794 27.1542 99.5301 25.4133 87.7399 23.356Z" fill="url(#paint14_linear_30_17121)"/>
<path d="M49.7093 120.051C49.7093 120.051 97.8061 130.955 110.47 136.332L49.7093 120.051Z" fill="#9A7DF8"/>
<path d="M123.391 98.8029L132.61 89.4826L134.998 93.3181L126.989 99.767L123.391 98.8029Z" fill="#4F31E0"/>
<path d="M31.7789 40.9778L34.5809 37.1006L28.0769 29.2973L22.6166 31.5807L31.7789 40.9778Z" fill="#FF1D9C"/>
<path d="M53.4548 9.43122L61.7991 9.13268L62.6103 13.0965L52.9038 11.4874L53.4548 9.43122Z" fill="#FFC188"/>
<path d="M130.822 42.2826L143.187 39.3149L143.078 44.2444L130.853 45.0457L130.822 42.2826Z" fill="#BDE0FF"/>
<defs>
<linearGradient id="paint0_linear_30_17121" x1="62.187" y1="132.556" x2="64.4683" y2="124.042" gradientUnits="userSpaceOnUse">
<stop stop-color="#1C257B"/>
<stop offset="1" stop-color="#482C83"/>
</linearGradient>
<linearGradient id="paint1_linear_30_17121" x1="64.4685" y1="124.042" x2="88.598" y2="33.9894" gradientUnits="userSpaceOnUse">
<stop stop-color="#744FD8"/>
<stop offset="1" stop-color="#3996F7"/>
</linearGradient>
<linearGradient id="paint2_linear_30_17121" x1="93.4088" y1="31.5481" x2="95.2832" y2="24.5528" gradientUnits="userSpaceOnUse">
<stop stop-color="#1C257B"/>
<stop offset="1" stop-color="#482C83"/>
</linearGradient>
<linearGradient id="paint3_linear_30_17121" x1="65.2525" y1="120.03" x2="90.6043" y2="25.4156" gradientUnits="userSpaceOnUse">
<stop stop-color="#D1BBFF"/>
<stop offset="1" stop-color="white"/>
</linearGradient>
<linearGradient id="paint4_linear_30_17121" x1="60.7011" y1="37.32" x2="93.894" y2="46.214" gradientUnits="userSpaceOnUse">
<stop stop-color="#8B8BE0"/>
<stop offset="1" stop-color="#A177B7"/>
</linearGradient>
<linearGradient id="paint5_linear_30_17121" x1="46.3606" y1="69.6505" x2="80.4527" y2="78.7855" gradientUnits="userSpaceOnUse">
<stop stop-color="#8B8BE0"/>
<stop offset="1" stop-color="#A177B7"/>
</linearGradient>
<linearGradient id="paint6_linear_30_17121" x1="40.9987" y1="84.8399" x2="74.8287" y2="93.9047" gradientUnits="userSpaceOnUse">
<stop stop-color="#8B8BE0"/>
<stop offset="1" stop-color="#A177B7"/>
</linearGradient>
<linearGradient id="paint7_linear_30_17121" x1="53.5565" y1="53.1174" x2="88.2031" y2="62.401" gradientUnits="userSpaceOnUse">
<stop stop-color="#8B8BE0"/>
<stop offset="1" stop-color="#A177B7"/>
</linearGradient>
<linearGradient id="paint8_linear_30_17121" x1="56.8819" y1="44.5746" x2="98.9552" y2="55.8481" gradientUnits="userSpaceOnUse">
<stop stop-color="#8B8BE0"/>
<stop offset="1" stop-color="#A177B7"/>
</linearGradient>
<linearGradient id="paint9_linear_30_17121" x1="49.4503" y1="61.5056" x2="94.2248" y2="73.5029" gradientUnits="userSpaceOnUse">
<stop stop-color="#8B8BE0"/>
<stop offset="1" stop-color="#A177B7"/>
</linearGradient>
<linearGradient id="paint10_linear_30_17121" x1="42.6604" y1="77.0978" x2="89.872" y2="89.7481" gradientUnits="userSpaceOnUse">
<stop stop-color="#8B8BE0"/>
<stop offset="1" stop-color="#A177B7"/>
</linearGradient>
<linearGradient id="paint11_linear_30_17121" x1="36.5067" y1="91.5755" x2="85.8401" y2="104.794" gradientUnits="userSpaceOnUse">
<stop stop-color="#8B8BE0"/>
<stop offset="1" stop-color="#A177B7"/>
</linearGradient>
<linearGradient id="paint12_linear_30_17121" x1="81.7233" y1="119.745" x2="104.763" y2="125.918" gradientUnits="userSpaceOnUse">
<stop stop-color="#8B8BE0"/>
<stop offset="1" stop-color="#A177B7"/>
</linearGradient>
<linearGradient id="paint13_linear_30_17121" x1="65.2525" y1="120.03" x2="90.5327" y2="25.683" gradientUnits="userSpaceOnUse">
<stop stop-color="#8B8BE0"/>
<stop offset="1" stop-color="#595992"/>
</linearGradient>
<linearGradient id="paint14_linear_30_17121" x1="87.607" y1="24.0512" x2="104.469" y2="28.5693" gradientUnits="userSpaceOnUse">
<stop stop-color="#B9ACF4"/>
<stop offset="1" stop-color="#E1D1F5"/>
</linearGradient>
</defs>
</svg>
